<svg width="23" height="14" viewBox="0 0 23 16" fill="none" xmlns="http://www.w3.org/2000/svg">
<path d="M4.33205 3.26465C3.94375 3.26465 3.62891 3.57945 3.62891 3.96779V12.4053C3.62891 12.7936 3.94371 13.1085 4.33205 13.1085C4.72038 13.1085 5.03519 12.7936 5.03519 12.4053V3.96779C5.03519 3.5795 4.72038 3.26465 4.33205 3.26465Z" fill="#2F2D2C"/>
<path fill-rule="evenodd" clip-rule="evenodd" d="M4.33205 3.41465C4.02659 3.41465 3.77891 3.6623 3.77891 3.96779V12.4053C3.77891 12.7108 4.02656 12.9585 4.33205 12.9585C4.63754 12.9585 4.88519 12.7108 4.88519 12.4053V3.96779C4.88519 3.66233 4.63753 3.41465 4.33205 3.41465ZM3.62891 3.96779C3.62891 3.57945 3.94375 3.26465 4.33205 3.26465C4.72038 3.26465 5.03519 3.5795 5.03519 3.96779V12.4053C5.03519 12.7936 4.72038 13.1085 4.33205 13.1085C3.94371 13.1085 3.62891 12.7936 3.62891 12.4053V3.96779Z" fill="#FBFBFB"/>
<path d="M9.95705 3.26465C9.56875 3.26465 9.25391 3.57945 9.25391 3.96779V9.59279C9.25391 9.98108 9.56871 10.2959 9.95705 10.2959C10.3453 10.2959 10.6602 9.98113 10.6602 9.59279V3.96779C10.6602 3.5795 10.3454 3.26465 9.95705 3.26465Z" fill="#2F2D2C"/>
<path fill-rule="evenodd" clip-rule="evenodd" d="M9.95705 3.41465C9.65159 3.41465 9.40391 3.6623 9.40391 3.96779V9.59279C9.40391 9.89825 9.65156 10.1459 9.95705 10.1459C10.2625 10.1459 10.5102 9.89828 10.5102 9.59279V3.96779C10.5102 3.66233 10.2625 3.41465 9.95705 3.41465ZM9.25391 3.96779C9.25391 3.57945 9.56875 3.26465 9.95705 3.26465C10.3454 3.26465 10.6602 3.5795 10.6602 3.96779V9.59279C10.6602 9.98113 10.3453 10.2959 9.95705 10.2959C9.56871 10.2959 9.25391 9.98108 9.25391 9.59279V3.96779Z" fill="#FBFBFB"/>
<path d="M16.0508 3.26465C15.6625 3.26465 15.3477 3.57945 15.3477 3.96779V9.59279C15.3477 9.98108 15.6625 10.2959 16.0508 10.2959C16.4391 10.2959 16.7539 9.98113 16.7539 9.59279V3.96779C16.7539 3.5795 16.4391 3.26465 16.0508 3.26465Z" fill="#2F2D2C"/>
<path fill-rule="evenodd" clip-rule="evenodd" d="M16.0508 3.41465C15.7453 3.41465 15.4977 3.6623 15.4977 3.96779V9.59279C15.4977 9.89825 15.7453 10.1459 16.0508 10.1459C16.3563 10.1459 16.6039 9.89828 16.6039 9.59279V3.96779C16.6039 3.66233 16.3563 3.41465 16.0508 3.41465ZM15.3477 3.96779C15.3477 3.57945 15.6625 3.26465 16.0508 3.26465C16.4391 3.26465 16.7539 3.5795 16.7539 3.96779V9.59279C16.7539 9.98113 16.4391 10.2959 16.0508 10.2959C15.6625 10.2959 15.3477 9.98108 15.3477 9.59279V3.96779Z" fill="#FBFBFB"/>
<path d="M18.8633 3.26465C18.475 3.26465 18.1602 3.57945 18.1602 3.96779V12.4053C18.1602 12.7936 18.475 13.1085 18.8633 13.1085C19.2516 13.1085 19.5664 12.7936 19.5664 12.4053V3.96779C19.5664 3.5795 19.2516 3.26465 18.8633 3.26465Z" fill="#2F2D2C"/>
<path fill-rule="evenodd" clip-rule="evenodd" d="M18.8633 3.41465C18.5578 3.41465 18.3102 3.6623 18.3102 3.96779V12.4053C18.3102 12.7108 18.5578 12.9585 18.8633 12.9585C19.1688 12.9585 19.4164 12.7108 19.4164 12.4053V3.96781C19.4164 3.9678 19.4164 3.96781 19.4164 3.96781C19.4164 3.66233 19.1687 3.41465 18.8633 3.41465ZM19.5664 3.96779V12.4053C19.5664 12.7936 19.2516 13.1085 18.8633 13.1085C18.475 13.1085 18.1602 12.7936 18.1602 12.4053V3.96779C18.1602 3.57945 18.475 3.26465 18.8633 3.26465C19.2516 3.26465 19.5664 3.5795 19.5664 3.96779Z" fill="#FBFBFB"/>
<path d="M9.95705 13.1084C10.3454 13.1084 10.6602 12.7936 10.6602 12.4053C10.6602 12.017 10.3454 11.7021 9.95705 11.7021C9.56871 11.7021 9.25391 12.017 9.25391 12.4053C9.25391 12.7936 9.56871 13.1084 9.95705 13.1084Z" fill="#2F2D2C"/>
<path fill-rule="evenodd" clip-rule="evenodd" d="M9.95705 12.9584C10.2625 12.9584 10.5102 12.7108 10.5102 12.4053C10.5102 12.0998 10.2625 11.8521 9.95705 11.8521C9.65156 11.8521 9.40391 12.0998 9.40391 12.4053C9.40391 12.7108 9.65156 12.9584 9.95705 12.9584ZM10.6602 12.4053C10.6602 12.7936 10.3454 13.1084 9.95705 13.1084C9.56871 13.1084 9.25391 12.7936 9.25391 12.4053C9.25391 12.017 9.56871 11.7021 9.95705 11.7021C10.3454 11.7021 10.6602 12.017 10.6602 12.4053Z" fill="#FBFBFB"/>
<path d="M12.7695 3.26465C12.3813 3.26465 12.0664 3.57945 12.0664 3.96779V9.59279C12.0664 9.98108 12.3812 10.2959 12.7695 10.2959C13.1578 10.2959 13.4727 9.98113 13.4727 9.59279V3.96779C13.4727 3.5795 13.1579 3.26465 12.7695 3.26465Z" fill="#2F2D2C"/>
<path fill-rule="evenodd" clip-rule="evenodd" d="M12.7695 3.41465C12.4641 3.41465 12.2164 3.6623 12.2164 3.96779V9.59279C12.2164 9.89825 12.4641 10.1459 12.7695 10.1459C13.075 10.1459 13.3227 9.89828 13.3227 9.59279V3.96779C13.3227 3.66233 13.075 3.41465 12.7695 3.41465ZM12.0664 3.96779C12.0664 3.57945 12.3813 3.26465 12.7695 3.26465C13.1579 3.26465 13.4727 3.5795 13.4727 3.96779V9.59279C13.4727 9.98113 13.1578 10.2959 12.7695 10.2959C12.3812 10.2959 12.0664 9.98108 12.0664 9.59279V3.96779Z" fill="#FBFBFB"/>
<path d="M12.7695 13.1084C13.1579 13.1084 13.4727 12.7936 13.4727 12.4053C13.4727 12.017 13.1579 11.7021 12.7695 11.7021C12.3812 11.7021 12.0664 12.017 12.0664 12.4053C12.0664 12.7936 12.3812 13.1084 12.7695 13.1084Z" fill="#2F2D2C"/>
<path fill-rule="evenodd" clip-rule="evenodd" d="M12.7695 12.9584C13.075 12.9584 13.3227 12.7108 13.3227 12.4053C13.3227 12.0998 13.075 11.8521 12.7695 11.8521C12.4641 11.8521 12.2164 12.0998 12.2164 12.4053C12.2164 12.7108 12.4641 12.9584 12.7695 12.9584ZM13.4727 12.4053C13.4727 12.7936 13.1579 13.1084 12.7695 13.1084C12.3812 13.1084 12.0664 12.7936 12.0664 12.4053C12.0664 12.017 12.3812 11.7021 12.7695 11.7021C13.1579 11.7021 13.4727 12.017 13.4727 12.4053Z" fill="#FBFBFB"/>
<path d="M7.14455 3.26465C6.75625 3.26465 6.44141 3.57945 6.44141 3.96779V9.59279C6.44141 9.98108 6.75621 10.2959 7.14455 10.2959C7.53288 10.2959 7.84769 9.98113 7.84769 9.59279V3.96779C7.84769 3.5795 7.53284 3.26465 7.14455 3.26465Z" fill="#2F2D2C"/>
<path fill-rule="evenodd" clip-rule="evenodd" d="M7.14455 3.41465C6.83909 3.41465 6.59141 3.6623 6.59141 3.96779V9.59279C6.59141 9.89825 6.83906 10.1459 7.14455 10.1459C7.45004 10.1459 7.69769 9.89828 7.69769 9.59279V3.96779C7.69769 3.66234 7.45 3.41465 7.14455 3.41465ZM6.44141 3.96779C6.44141 3.57945 6.75625 3.26465 7.14455 3.26465C7.53284 3.26465 7.84769 3.5795 7.84769 3.96779V9.59279C7.84769 9.98113 7.53288 10.2959 7.14455 10.2959C6.75621 10.2959 6.44141 9.98108 6.44141 9.59279V3.96779Z" fill="#FBFBFB"/>
<path d="M7.14455 13.1084C7.53288 13.1084 7.84769 12.7936 7.84769 12.4053C7.84769 12.017 7.53288 11.7021 7.14455 11.7021C6.75621 11.7021 6.44141 12.017 6.44141 12.4053C6.44141 12.7936 6.75621 13.1084 7.14455 13.1084Z" fill="#2F2D2C"/>
<path fill-rule="evenodd" clip-rule="evenodd" d="M7.14455 12.9584C7.45004 12.9584 7.69769 12.7108 7.69769 12.4053C7.69769 12.0998 7.45004 11.8521 7.14455 11.8521C6.83906 11.8521 6.59141 12.0998 6.59141 12.4053C6.59141 12.7108 6.83906 12.9584 7.14455 12.9584ZM7.84769 12.4053C7.84769 12.7936 7.53288 13.1084 7.14455 13.1084C6.75621 13.1084 6.44141 12.7936 6.44141 12.4053C6.44141 12.017 6.75621 11.7021 7.14455 11.7021C7.53288 11.7021 7.84769 12.017 7.84769 12.4053Z" fill="#FBFBFB"/>
<path d="M16.0508 13.1084C16.4391 13.1084 16.7539 12.7936 16.7539 12.4053C16.7539 12.017 16.4391 11.7021 16.0508 11.7021C15.6625 11.7021 15.3477 12.017 15.3477 12.4053C15.3477 12.7936 15.6625 13.1084 16.0508 13.1084Z" fill="#2F2D2C"/>
<path fill-rule="evenodd" clip-rule="evenodd" d="M16.0508 12.9584C16.3563 12.9584 16.6039 12.7108 16.6039 12.4053C16.6039 12.0998 16.3563 11.8521 16.0508 11.8521C15.7453 11.8521 15.4977 12.0998 15.4977 12.4053C15.4977 12.7108 15.7453 12.9584 16.0508 12.9584ZM16.7539 12.4053C16.7539 12.7936 16.4391 13.1084 16.0508 13.1084C15.6625 13.1084 15.3477 12.7936 15.3477 12.4053C15.3477 12.017 15.6625 11.7021 16.0508 11.7021C16.4391 11.7021 16.7539 12.017 16.7539 12.4053Z" fill="#FBFBFB"/>
<path d="M20.2696 0.452148H2.92579C1.76267 0.452148 0.816406 1.39842 0.816406 2.56153V13.8115C0.816406 14.9746 1.76267 15.9209 2.92579 15.9209H20.2696C21.4327 15.9209 22.3789 14.9746 22.3789 13.8115V2.56153C22.3789 1.39842 21.4327 0.452148 20.2696 0.452148ZM20.9727 13.8115C20.9727 14.1992 20.6573 14.5147 20.2696 14.5147H2.92579C2.53808 14.5147 2.22265 14.1992 2.22265 13.8115V2.56153C2.22265 2.17382 2.53808 1.85839 2.92579 1.85839H20.2696C20.6573 1.85839 20.9727 2.17382 20.9727 2.56153V13.8115Z" fill="#2F2D2C"/>
<path fill-rule="evenodd" clip-rule="evenodd" d="M20.2696 0.602148H2.92579C1.84552 0.602148 0.966406 1.48126 0.966406 2.56153V13.8115C0.966406 14.8918 1.84552 15.7709 2.92579 15.7709H20.2696C21.3498 15.7709 22.2289 14.8918 22.2289 13.8115V2.56153C22.2289 1.48126 21.3498 0.602148 20.2696 0.602148ZM21.1227 13.8115C21.1227 14.2821 20.7401 14.6647 20.2696 14.6647H2.92579C2.45524 14.6647 2.07265 14.2821 2.07265 13.8115V2.56153C2.07265 2.09098 2.45524 1.70839 2.92579 1.70839H20.2696C20.7401 1.70839 21.1227 2.09098 21.1227 2.56153V13.8115ZM2.92579 0.452148H20.2696C21.4327 0.452148 22.3789 1.39842 22.3789 2.56153V13.8115C22.3789 14.9746 21.4327 15.9209 20.2696 15.9209H2.92579C1.76267 15.9209 0.816406 14.9746 0.816406 13.8115V2.56153C0.816406 1.39842 1.76267 0.452148 2.92579 0.452148ZM20.2696 14.5147C20.6573 14.5147 20.9727 14.1992 20.9727 13.8115V2.56153C20.9727 2.17382 20.6573 1.85839 20.2696 1.85839H2.92579C2.53808 1.85839 2.22265 2.17382 2.22265 2.56153V13.8115C2.22265 14.1992 2.53808 14.5147 2.92579 14.5147H20.2696Z" fill="#FBFBFB"/>
</svg>
