<svg width="31" height="24" viewBox="0 0 31 24" fill="none" xmlns="http://www.w3.org/2000/svg">
<path d="M3.97414 10.9492C3.58584 10.9492 3.271 11.264 3.271 11.6524V20.0899C3.271 20.4782 3.5858 20.793 3.97414 20.793C4.36247 20.793 4.67728 20.4782 4.67728 20.0899V11.6524C4.67728 11.2641 4.36247 10.9492 3.97414 10.9492Z" fill="#2F2D2C"/>
<path d="M9.59914 10.9492C9.21084 10.9492 8.896 11.264 8.896 11.6524V17.2774C8.896 17.6657 9.2108 17.9805 9.59914 17.9805C9.98743 17.9805 10.3023 17.6657 10.3023 17.2774V11.6524C10.3023 11.2641 9.98747 10.9492 9.59914 10.9492Z" fill="#2F2D2C"/>
<path d="M15.6929 10.9492C15.3046 10.9492 14.9897 11.264 14.9897 11.6524V17.2774C14.9897 17.6657 15.3046 17.9805 15.6929 17.9805C16.0812 17.9805 16.396 17.6657 16.396 17.2774V11.6524C16.396 11.2641 16.0812 10.9492 15.6929 10.9492Z" fill="#2F2D2C"/>
<path d="M18.5054 10.9492C18.1171 10.9492 17.8022 11.264 17.8022 11.6524V20.0899C17.8022 20.4782 18.1171 20.793 18.5054 20.793C18.8937 20.793 19.2085 20.4782 19.2085 20.0899V11.6524C19.2085 11.2641 18.8937 10.9492 18.5054 10.9492Z" fill="#2F2D2C"/>
<path d="M9.59914 20.793C9.98747 20.793 10.3023 20.4782 10.3023 20.0899C10.3023 19.7015 9.98747 19.3867 9.59914 19.3867C9.2108 19.3867 8.896 19.7015 8.896 20.0899C8.896 20.4782 9.2108 20.793 9.59914 20.793Z" fill="#2F2D2C"/>
<path d="M12.4116 10.9492C12.0233 10.9492 11.7085 11.264 11.7085 11.6524V17.2774C11.7085 17.6657 12.0233 17.9805 12.4116 17.9805C12.7999 17.9805 13.1148 17.6657 13.1148 17.2774V11.6524C13.1148 11.2641 12.8 10.9492 12.4116 10.9492Z" fill="#2F2D2C"/>
<path d="M12.4116 20.793C12.8 20.793 13.1148 20.4782 13.1148 20.0899C13.1148 19.7015 12.8 19.3867 12.4116 19.3867C12.0233 19.3867 11.7085 19.7015 11.7085 20.0899C11.7085 20.4782 12.0233 20.793 12.4116 20.793Z" fill="#2F2D2C"/>
<path d="M6.78664 10.9492C6.39834 10.9492 6.0835 11.264 6.0835 11.6524V17.2774C6.0835 17.6657 6.3983 17.9805 6.78664 17.9805C7.17497 17.9805 7.48978 17.6657 7.48978 17.2774V11.6524C7.48978 11.2641 7.17493 10.9492 6.78664 10.9492Z" fill="#2F2D2C"/>
<path d="M6.78664 20.793C7.17497 20.793 7.48978 20.4782 7.48978 20.0899C7.48978 19.7015 7.17497 19.3867 6.78664 19.3867C6.3983 19.3867 6.0835 19.7015 6.0835 20.0899C6.0835 20.4782 6.3983 20.793 6.78664 20.793Z" fill="#2F2D2C"/>
<path d="M15.6929 20.793C16.0812 20.793 16.396 20.4782 16.396 20.0899C16.396 19.7015 16.0812 19.3867 15.6929 19.3867C15.3046 19.3867 14.9897 19.7015 14.9897 20.0899C14.9897 20.4782 15.3046 20.793 15.6929 20.793Z" fill="#2F2D2C"/>
<path d="M19.9117 8.13672H2.56788C1.40476 8.13672 0.458496 9.08299 0.458496 10.2461V21.4961C0.458496 22.6592 1.40476 23.6055 2.56788 23.6055H19.9117C21.0748 23.6055 22.021 22.6592 22.021 21.4961V10.2461C22.021 9.08299 21.0748 8.13672 19.9117 8.13672ZM20.6148 21.4961C20.6148 21.8838 20.2994 22.1992 19.9117 22.1992H2.56788C2.18017 22.1992 1.86474 21.8838 1.86474 21.4961V10.2461C1.86474 9.85839 2.18017 9.54296 2.56788 9.54296H19.9117C20.2994 9.54296 20.6148 9.85839 20.6148 10.2461V21.4961Z" fill="#2F2D2C"/>
<circle cx="22.7241" cy="8.13673" r="7.23438" fill="#FE7700" stroke="white"/>
<path d="M21.8911 8.97632L21.8911 5.97632" stroke="white" stroke-width="1.25" stroke-linecap="round"/>
<path d="M21.8911 8.97632L26.3909 9.01869" stroke="white" stroke-width="1.25" stroke-linecap="round"/>
</svg>
