<svg width="31" height="24" viewBox="0 0 31 24" fill="none" xmlns="http://www.w3.org/2000/svg">
<path d="M3.97414 10.7612C3.58584 10.7612 3.271 11.076 3.271 11.4644V19.9019C3.271 20.2902 3.5858 20.605 3.97414 20.605C4.36247 20.605 4.67728 20.2902 4.67728 19.9019V11.4644C4.67728 11.0761 4.36247 10.7612 3.97414 10.7612Z" fill="#202430"/>
<path d="M9.59914 10.7612C9.21084 10.7612 8.896 11.076 8.896 11.4644V17.0894C8.896 17.4777 9.2108 17.7925 9.59914 17.7925C9.98743 17.7925 10.3023 17.4777 10.3023 17.0894V11.4644C10.3023 11.0761 9.98747 10.7612 9.59914 10.7612Z" fill="#202430"/>
<path d="M15.6929 10.7612C15.3046 10.7612 14.9897 11.076 14.9897 11.4644V17.0894C14.9897 17.4777 15.3046 17.7925 15.6929 17.7925C16.0812 17.7925 16.396 17.4777 16.396 17.0894V11.4644C16.396 11.0761 16.0812 10.7612 15.6929 10.7612Z" fill="#202430"/>
<path d="M18.5054 10.7612C18.1171 10.7612 17.8022 11.076 17.8022 11.4644V19.9019C17.8022 20.2902 18.1171 20.605 18.5054 20.605C18.8937 20.605 19.2085 20.2902 19.2085 19.9019V11.4644C19.2085 11.0761 18.8937 10.7612 18.5054 10.7612Z" fill="#202430"/>
<path d="M9.59914 20.605C9.98747 20.605 10.3023 20.2902 10.3023 19.9019C10.3023 19.5135 9.98747 19.1987 9.59914 19.1987C9.2108 19.1987 8.896 19.5135 8.896 19.9019C8.896 20.2902 9.2108 20.605 9.59914 20.605Z" fill="#202430"/>
<path d="M12.4116 10.7612C12.0233 10.7612 11.7085 11.076 11.7085 11.4644V17.0894C11.7085 17.4777 12.0233 17.7925 12.4116 17.7925C12.7999 17.7925 13.1148 17.4777 13.1148 17.0894V11.4644C13.1148 11.0761 12.8 10.7612 12.4116 10.7612Z" fill="#202430"/>
<path d="M12.4116 20.605C12.8 20.605 13.1148 20.2902 13.1148 19.9019C13.1148 19.5135 12.8 19.1987 12.4116 19.1987C12.0233 19.1987 11.7085 19.5135 11.7085 19.9019C11.7085 20.2902 12.0233 20.605 12.4116 20.605Z" fill="#202430"/>
<path d="M6.78664 10.7612C6.39834 10.7612 6.0835 11.076 6.0835 11.4644V17.0894C6.0835 17.4777 6.3983 17.7925 6.78664 17.7925C7.17497 17.7925 7.48978 17.4777 7.48978 17.0894V11.4644C7.48978 11.0761 7.17493 10.7612 6.78664 10.7612Z" fill="#202430"/>
<path d="M6.78664 20.605C7.17497 20.605 7.48978 20.2902 7.48978 19.9019C7.48978 19.5135 7.17497 19.1987 6.78664 19.1987C6.3983 19.1987 6.0835 19.5135 6.0835 19.9019C6.0835 20.2902 6.3983 20.605 6.78664 20.605Z" fill="#202430"/>
<path d="M15.6929 20.605C16.0812 20.605 16.396 20.2902 16.396 19.9019C16.396 19.5135 16.0812 19.1987 15.6929 19.1987C15.3046 19.1987 14.9897 19.5135 14.9897 19.9019C14.9897 20.2902 15.3046 20.605 15.6929 20.605Z" fill="#202430"/>
<path d="M19.9117 7.94873H2.56788C1.40476 7.94873 0.458496 8.895 0.458496 10.0581V21.3081C0.458496 22.4712 1.40476 23.4175 2.56788 23.4175H19.9117C21.0748 23.4175 22.021 22.4712 22.021 21.3081V10.0581C22.021 8.895 21.0748 7.94873 19.9117 7.94873ZM20.6148 21.3081C20.6148 21.6958 20.2994 22.0113 19.9117 22.0113H2.56788C2.18017 22.0113 1.86474 21.6958 1.86474 21.3081V10.0581C1.86474 9.67041 2.18017 9.35497 2.56788 9.35497H19.9117C20.2994 9.35497 20.6148 9.67041 20.6148 10.0581V21.3081Z" fill="#202430"/>
<circle cx="22.7241" cy="7.94874" r="7.23438" fill="#E21E22" stroke="white"/>
<path d="M22.0661 9.29173H23.3389L23.5115 4.08154H21.8827L22.0661 9.29173ZM23.6518 10.9314C23.6518 10.4352 23.2634 10.0468 22.7349 10.0468C22.1847 10.0468 21.7964 10.4352 21.7964 10.9314C21.7964 11.4276 22.1847 11.8159 22.7349 11.8159C23.2634 11.8159 23.6518 11.4276 23.6518 10.9314Z" fill="white"/>
</svg>
