<svg width="54" height="54" viewBox="0 0 54 54" fill="none" xmlns="http://www.w3.org/2000/svg">
<path d="M49.2753 0.355835H43.3156L29.0006 1.67514C29.0797 1.47641 29.1288 1.26059 29.1288 1.03194C29.1288 0.0895787 28.3638 1.03186 27.4193 1.03186C26.4748 1.03186 25.7098 0.0874418 25.7098 1.03194C25.7098 1.25845 25.7568 1.47641 25.8401 1.67514L11.5273 0.355835H5.56543C3.01827 0.355835 0.943359 2.43075 0.943359 4.97791V48.6899C0.943359 51.2392 3.01613 53.312 5.56543 53.312H44.057L53.8974 43.4716V4.97791C53.8974 2.42861 51.8203 0.355835 49.2753 0.355835ZM44.7537 6.27499C44.7537 7.649 43.6404 8.76018 42.2663 8.76018C40.8902 8.76018 39.779 7.64687 39.779 6.27499C39.779 4.90311 40.8923 3.78766 42.2663 3.78766C43.6404 3.78766 44.7537 4.90311 44.7537 6.27499ZM26.5517 2.4722C26.8103 2.62819 27.0966 2.74358 27.4193 2.74358C27.742 2.74358 28.0283 2.62819 28.2869 2.4722L41.6637 0.355835H13.1749L26.5517 2.4722ZM37.3323 6.27499C37.3323 7.649 36.219 8.76018 34.8428 8.76018C33.4688 8.76018 32.3598 7.64687 32.3598 6.27499C32.3598 4.90311 33.4731 3.78766 34.8428 3.78766C36.2147 3.78766 37.3323 4.90311 37.3323 6.27499ZM29.9045 6.27499C29.9045 7.649 28.7912 8.76018 27.4193 8.76018C26.0453 8.76018 24.932 7.64687 24.932 6.27499C24.932 4.90311 26.0453 3.78766 27.4193 3.78766C28.7912 3.78766 29.9045 4.90311 29.9045 6.27499ZM22.4788 6.27499C22.4788 7.649 21.3655 8.76018 19.9958 8.76018C18.6175 8.76018 17.5042 7.64687 17.5042 6.27499C17.5042 4.90311 18.6175 3.78766 19.9958 3.78766C21.3677 3.78766 22.4788 4.90311 22.4788 6.27499ZM12.568 3.78766C13.9441 3.78766 15.0553 4.90098 15.0553 6.27499C15.0553 7.649 13.942 8.76018 12.568 8.76018C11.194 8.76018 10.0807 7.64687 10.0807 6.27499C10.0828 4.90311 11.1961 3.78766 12.568 3.78766ZM51.3737 42.4246L50.8523 42.9438H46.8906C45.0422 42.9438 43.5314 44.4589 43.5314 46.3073V50.2691L43.01 50.7905H5.56329C4.40297 50.7905 3.46274 49.8481 3.46274 48.6899V11.7027H51.3737V42.4246Z" fill="#006FD6"/>
<path d="M20.0576 27.8425C19.7884 28.3041 19.3717 28.8426 18.8118 29.4559C18.2519 30.0756 17.4677 30.8341 16.4591 31.7252C15.9441 32.1761 15.3736 32.7253 14.7603 33.3728C14.1449 34.0288 13.5593 34.7852 13.0123 35.6592C12.4653 36.5311 12.0016 37.5311 11.6319 38.6509C11.2643 39.7749 11.0806 41.0399 11.0806 42.4524H26.2759V38.0803H17.8374C18.128 37.4115 18.6836 36.6849 19.502 35.9114C20.3204 35.14 21.3119 34.1762 22.4787 33.033C23.218 32.3385 23.8271 31.7124 24.31 31.1504C24.7908 30.5884 25.1776 30.0264 25.4703 29.4495C25.7609 28.8768 25.9597 28.2699 26.0751 27.6224C26.1862 26.9685 26.2439 26.195 26.2439 25.3018C26.2439 24.3615 26.1306 23.4833 25.9041 22.6755C25.6819 21.8678 25.2908 21.169 24.7288 20.5771C24.1668 19.9852 23.4125 19.513 22.4595 19.1668C21.5064 18.8206 20.3119 18.6411 18.878 18.6411C13.7645 18.6411 11.2088 21.0323 11.2088 25.8061V26.5796H16.457C16.457 26.133 16.4676 25.6479 16.489 25.1351C16.5125 24.6201 16.5937 24.1414 16.7262 23.7034C16.8608 23.2653 17.0724 22.9106 17.363 22.6264C17.6557 22.3443 18.0682 22.2097 18.6088 22.2097C19.4165 22.2097 19.9465 22.496 20.205 23.0645C20.4615 23.6393 20.5918 24.3915 20.5918 25.3338C20.5918 25.7826 20.5683 26.1928 20.5256 26.5775C20.4786 26.9643 20.3268 27.3852 20.0576 27.8425Z" fill="#006FD6"/>
<path d="M35.7719 27.9109C34.9748 29.4687 34.2696 31.0991 33.6564 32.8022C33.0388 34.5074 32.5238 36.1977 32.1071 37.8815C31.6947 39.559 31.4404 41.0826 31.3507 42.4545H37.2014C37.2655 41.1339 37.4685 39.6509 37.804 38.0162C38.1395 36.3772 38.5883 34.7019 39.1503 32.9881C39.7101 31.27 40.3704 29.5798 41.1333 27.9109C41.894 26.2398 42.736 24.712 43.6591 23.323V19.1198H28.4937V23.8914H38.2421C37.3959 25.0154 36.5689 26.3531 35.7719 27.9109Z" fill="#006FD6"/>
</svg>
