<svg width="21" height="21" viewBox="0 0 21 21" fill="none" xmlns="http://www.w3.org/2000/svg">
<path d="M10.8798 9.41479H5.81104L5.97077 11.3255H10.7201L10.8798 9.41479Z" fill="#202430"/>
<path d="M5.68858 14.9218L5.44388 11.8872H1.20605L1.98347 14.9218H5.68858Z" fill="#202430"/>
<path d="M5.73519 15.4839H2.13281L2.5999 17.2822H5.88233L5.73519 15.4839Z" fill="#202430"/>
<path d="M15.9619 10.1125C16.5807 9.49285 17.1994 8.85269 17.8183 8.2907H19.4185C20.43 8.2907 20.43 6.49243 19.4185 6.49243H17.4946C17.3063 6.49243 17.1508 6.55851 17.0266 6.641C16.9538 6.68056 16.8823 6.74047 16.8144 6.80849C16.0392 7.58465 15.2641 8.36588 14.4888 9.14209C14.4039 9.22715 14.3437 9.30222 14.3027 9.41462H11.4537L11.2939 11.3253H15.6345L15.9619 10.1125Z" fill="#202430"/>
<path d="M1.05579 11.3255H5.39635L5.23665 9.41479H0.54834L1.05579 11.3255Z" fill="#202430"/>
<path d="M10.2341 17.2822L10.3812 15.4839H6.31006L6.45705 17.2822H10.2341Z" fill="#202430"/>
<path d="M15.4846 11.8872H11.2467L11.002 14.9218H14.7072L15.4846 11.8872Z" fill="#202430"/>
<path d="M14.5576 15.4839H10.9551L10.8081 17.2822H14.0905L14.5576 15.4839Z" fill="#202430"/>
<path d="M10.673 11.8872H6.01807L6.26272 14.9218H10.4282L10.673 11.8872Z" fill="#202430"/>
<path d="M4.3341 20.8159C5.1696 20.8159 5.8469 20.1386 5.8469 19.3031C5.8469 18.4676 5.1696 17.7903 4.3341 17.7903C3.4986 17.7903 2.82129 18.4676 2.82129 19.3031C2.82129 20.1386 3.4986 20.8159 4.3341 20.8159Z" fill="#202430"/>
<path d="M12.3566 20.8159C13.1921 20.8159 13.8694 20.1386 13.8694 19.3031C13.8694 18.4676 13.1921 17.7903 12.3566 17.7903C11.5211 17.7903 10.8438 18.4676 10.8438 19.3031C10.8438 20.1386 11.5211 20.8159 12.3566 20.8159Z" fill="#202430"/>
<path d="M4.96677 7.11008L5.09231 6.01896C9.53762 6.53045 11.1047 7.94376 11.1047 7.94376C11.1047 7.94376 11.0368 2.53654 5.56546 1.90704L5.691 0.815918L0.564941 3.41485L4.96677 7.11008Z" fill="#E21E22"/>
</svg>
