<svg width="26" height="14" viewBox="0 0 26 19" fill="none" xmlns="http://www.w3.org/2000/svg">
<path d="M17.9668 10.0417L18.2551 9.89952C18.1562 9.96194 18.06 10.0282 17.9668 10.0982V10.0417ZM16.5659 11.8339H16.5897C16.5654 11.8895 16.5421 11.9457 16.5201 12.0025L16.5659 11.8339ZM16.4786 15.0754L16.4473 14.9322C16.4632 14.9804 16.48 15.0281 16.4976 15.0754H16.4786Z" fill="#2F2D2C" stroke="#2F2D2C"/>
<path d="M6.33634 9.05052L6.47739 8.84456L6.52805 8.87397C6.46019 8.92842 6.39613 8.98743 6.33634 9.05052ZM6.33672 11.6642C6.39646 11.7272 6.46047 11.7861 6.52827 11.8405L6.47764 11.8699L6.33672 11.6642Z" fill="#2F2D2C" stroke="#2F2D2C"/>
<path d="M10.7125 5.79521L10.7028 5.7934C10.7022 5.79692 10.7022 5.79943 10.7024 5.80099C10.7024 5.801 10.7024 5.80101 10.7024 5.80102C10.7025 5.80234 10.7028 5.80297 10.7028 5.80298C10.7028 5.80298 10.7028 5.80291 10.7027 5.80278C10.7026 5.80261 10.7026 5.80253 10.7026 5.80253C10.7026 5.80255 10.7037 5.80472 10.7082 5.80753L10.7125 5.79521ZM10.7125 5.79521L10.7141 5.797L10.7141 5.79702L10.7143 5.79721L10.7145 5.79744L10.7145 5.79744L10.7223 5.8063C10.72 5.80831 10.718 5.80939 10.7168 5.80988L10.7157 5.81025L10.7154 5.8103L10.7152 5.8103L10.7143 5.81014L10.7141 5.81011C10.7129 5.80983 10.7108 5.80912 10.7082 5.80754L10.7125 5.79521ZM10.7143 5.78589C10.7176 5.78589 10.7198 5.78641 10.7211 5.78683C10.7211 5.78683 10.7211 5.78684 10.7211 5.78684C10.7215 5.787 10.7219 5.78715 10.7221 5.78725C10.7226 5.7878 10.724 5.78951 10.7253 5.7932C10.7253 5.79321 10.7253 5.79321 10.7253 5.79322C10.7253 5.79322 10.7253 5.79323 10.7253 5.79323C10.7258 5.79494 10.7262 5.79641 10.7264 5.7976L10.7174 5.79592L10.7173 5.79591L10.7156 5.7956L10.7156 5.7956L10.7143 5.79535L10.7126 5.79503L10.7059 5.78743C10.7074 5.78678 10.7101 5.78589 10.7143 5.78589ZM10.717 5.79604L10.7264 5.79779C10.7265 5.7986 10.7265 5.79926 10.7266 5.79976L10.7265 5.80096L10.7265 5.80123L10.7264 5.80136L10.726 5.80207C10.7256 5.80284 10.7245 5.80438 10.7224 5.80619L10.7146 5.79729L10.7146 5.79728L10.7143 5.79696L10.7143 5.79694L10.7143 5.79694L10.7128 5.79526L10.7143 5.79553L10.7155 5.79577L10.7155 5.79577L10.7169 5.79603L10.717 5.79604ZM10.7123 5.79498L10.7029 5.79321C10.7034 5.79011 10.7044 5.78855 10.7048 5.788C10.705 5.7879 10.7053 5.78772 10.7058 5.7875L10.7123 5.79498Z" fill="#2F2D2C" stroke="#2F2D2C"/>
</svg>
