<svg width="18" height="16" viewBox="0 0 18 21" fill="none" xmlns="http://www.w3.org/2000/svg">
    <path d="M0.599854 5.92926C0.599854 4.82469 1.49528 3.92926 2.59985 3.92926H12.5933C13.6979 3.92926 14.5933 4.82469 14.5933 5.92926V18.7215C14.5933 19.826 13.6979 20.7215 12.5934 20.7215H2.59985C1.49528 20.7215 0.599854 19.826 0.599854 18.7215V5.92926Z" fill="#FBFBFB"/>
    <path fill-rule="evenodd" clip-rule="evenodd" d="M12.5933 5.26259H2.59985C2.23166 5.26259 1.93319 5.56107 1.93319 5.92926V18.7215C1.93319 19.0896 2.23166 19.3881 2.59985 19.3881H12.5934C12.9615 19.3881 13.26 19.0896 13.26 18.7215V5.92926C13.26 5.56107 12.9615 5.26259 12.5933 5.26259ZM2.59985 3.92926C1.49528 3.92926 0.599854 4.82469 0.599854 5.92926V18.7215C0.599854 19.826 1.49528 20.7215 2.59985 20.7215H12.5934C13.6979 20.7215 14.5933 19.826 14.5933 18.7215V5.92926C14.5933 4.82469 13.6979 3.92926 12.5933 3.92926H2.59985Z" fill="#2F2D2C"/>
    <path d="M3.54199 2.72144C3.54199 1.61687 4.43742 0.721436 5.54199 0.721436H15.5355C16.6401 0.721436 17.5355 1.61687 17.5355 2.72144V15.5136C17.5355 16.6182 16.6401 17.5136 15.5355 17.5136H5.54199C4.43742 17.5136 3.54199 16.6182 3.54199 15.5136V2.72144Z" fill="#FBFBFB"/>
    <path fill-rule="evenodd" clip-rule="evenodd" d="M15.5355 2.05477H5.54199C5.1738 2.05477 4.87533 2.35325 4.87533 2.72144V15.5136C4.87533 15.8818 5.1738 16.1803 5.54199 16.1803H15.5355C15.9037 16.1803 16.2022 15.8818 16.2022 15.5136V2.72144C16.2022 2.35325 15.9037 2.05477 15.5355 2.05477ZM5.54199 0.721436C4.43742 0.721436 3.54199 1.61687 3.54199 2.72144V15.5136C3.54199 16.6182 4.43742 17.5136 5.54199 17.5136H15.5355C16.6401 17.5136 17.5355 16.6182 17.5355 15.5136V2.72144C17.5355 1.61687 16.6401 0.721436 15.5355 0.721436H5.54199Z" fill="#2F2D2C"/>
</svg>
