<svg width="18" height="18" viewBox="0 0 18 21" fill="none" xmlns="http://www.w3.org/2000/svg">
<path fill-rule="evenodd" clip-rule="evenodd" d="M8.97668 16.5174C8.76296 16.5174 8.55803 16.4324 8.40714 16.281L1.67901 9.53224C1.36542 9.21769 1.3662 8.70848 1.68075 8.39489C1.99531 8.0813 2.50451 8.08208 2.8181 8.39663L8.17245 13.7674L8.17245 1.09088C8.17245 0.646719 8.53252 0.286654 8.97668 0.286654C9.42084 0.286654 9.78091 0.646719 9.78091 1.09088L9.78091 13.7674L15.1353 8.39663C15.4488 8.08208 15.9581 8.0813 16.2726 8.39489C16.5872 8.70848 16.5879 9.21769 16.2743 9.53224L9.54623 16.281C9.39533 16.4324 9.1904 16.5174 8.97668 16.5174Z" fill="#494545"/>
<path fill-rule="evenodd" clip-rule="evenodd" d="M0 19.4253C0 18.9497 0.385591 18.5641 0.861242 18.5641H17.092C17.5677 18.5641 17.9533 18.9497 17.9533 19.4253C17.9533 19.901 17.5677 20.2866 17.092 20.2866H0.861242C0.385591 20.2866 0 19.901 0 19.4253Z" fill="#494545"/>
</svg>
