<svg width="32" height="31" viewBox="0 0 32 31" fill="none" xmlns="http://www.w3.org/2000/svg">
<path d="M21.6726 23.0792H19.7371V16.9501H18.4146V15.0146H20.7049C21.2391 15.0146 21.6726 15.4482 21.6726 15.9824V23.0792Z" fill="#D9D9D9"/>
<path d="M11.3179 16.9047C11.3179 16.7666 11.4298 16.6547 11.5679 16.6547H13.0034C13.1414 16.6547 13.2534 16.7666 13.2534 16.9047V22.2111C13.2534 22.3492 13.1414 22.4611 13.0034 22.4611H11.5679C11.4298 22.4611 11.3179 22.3492 11.3179 22.2111V16.9047Z" fill="#D9D9D9"/>
<path d="M9.38232 18.8401C9.38232 18.702 9.49425 18.5901 9.63232 18.5901H14.9388C15.0768 18.5901 15.1888 18.702 15.1888 18.8401V20.2756C15.1888 20.4136 15.0768 20.5256 14.9388 20.5256H9.63232C9.49425 20.5256 9.38232 20.4136 9.38232 20.2756V18.8401Z" fill="#D9D9D9"/>
<path d="M27.8017 30.4985H3.93071C1.97329 30.4985 0.382324 28.9076 0.382324 26.9502V5.65984C0.382324 3.70242 1.97329 2.11145 3.93071 2.11145H27.8017C29.7591 2.11145 31.3501 3.70242 31.3501 5.65984V26.9502C31.3501 28.9076 29.7591 30.4985 27.8017 30.4985ZM3.93071 4.04693C3.04168 4.04693 2.31781 4.77081 2.31781 5.65984V26.9502C2.31781 27.8392 3.04168 28.5631 3.93071 28.5631H27.8017C28.6907 28.5631 29.4146 27.8392 29.4146 26.9502V5.65984C29.4146 4.77081 28.6907 4.04693 27.8017 4.04693H3.93071Z" fill="#D9D9D9"/>
<path d="M1.3501 8.56311H30.3824V10.4986H1.3501V8.56311Z" fill="#D9D9D9"/>
<path d="M6.83398 1.46628C6.83398 0.931808 7.26726 0.498535 7.80173 0.498535C8.3362 0.498535 8.76947 0.931808 8.76947 1.46628V4.04692C8.76947 4.58139 8.3362 5.01466 7.80173 5.01466C7.26726 5.01466 6.83398 4.58139 6.83398 4.04692V1.46628Z" fill="#D9D9D9"/>
<path d="M22.9629 1.46628C22.9629 0.931808 23.3962 0.498535 23.9306 0.498535C24.4651 0.498535 24.8984 0.931808 24.8984 1.46628V4.04692C24.8984 4.58139 24.4651 5.01466 23.9306 5.01466C23.3962 5.01466 22.9629 4.58139 22.9629 4.04692V1.46628Z" fill="#D9D9D9"/>
</svg>
