<svg width="27" height="31" viewBox="0 0 27 31" fill="none" xmlns="http://www.w3.org/2000/svg">
<path fill-rule="evenodd" clip-rule="evenodd" d="M17.27 2.53442C17.6287 2.75284 17.6287 3.27364 17.27 3.49206L13.2624 5.93211C12.8888 6.15956 12.4103 5.89066 12.4103 5.45329V4.46699C7.15798 5.17818 3.10938 9.67987 3.10938 15.1272C3.10938 17.7756 4.06496 20.198 5.65147 22.0726C6.05285 22.5469 5.99376 23.2567 5.51949 23.6581C5.04522 24.0595 4.33536 24.0004 3.93398 23.5261C2.01655 21.2605 0.859375 18.3275 0.859375 15.1272C0.859375 8.43562 5.91202 2.92417 12.4103 2.19984V0.573183C12.4103 0.135815 12.8888 -0.133087 13.2624 0.0943646L17.27 2.53442ZM22.3349 6.71487C22.8147 6.32019 23.5237 6.38925 23.9184 6.86911C25.7655 9.11488 26.8754 11.9929 26.8754 15.1272C26.8754 21.653 22.0699 27.0565 15.8046 27.9919V29.4503C15.8046 29.8876 15.326 30.1565 14.9524 29.9291L10.9448 27.489C10.5861 27.2706 10.5861 26.7498 10.9448 26.5314L14.9524 24.0913C15.326 23.8639 15.8046 24.1328 15.8046 24.5701V25.7113C20.8215 24.799 24.6254 20.4073 24.6254 15.1272C24.6254 12.5332 23.7088 10.1563 22.1807 8.29837C21.786 7.81851 21.855 7.10956 22.3349 6.71487Z" fill="#D9D9D9"/>
</svg>
