<svg width="31" height="28" viewBox="0 0 31 28" fill="none" xmlns="http://www.w3.org/2000/svg">
<path d="M27.5944 11.257L30.611 8.26726C30.9574 7.92396 30.9578 7.36374 30.6121 7.01985C24.7426 1.18183 25.959 2.3935 24.3721 0.806652C24.0289 0.463467 23.4724 0.463467 23.1292 0.806652L20.8717 3.06393C20.3242 3.61143 18.4551 3.4111 16.7156 3.7837C15.2324 2.92155 14.0109 2.97012 13.0188 3.00979C12.1403 3.04501 11.6849 3.05344 11.0816 2.67293C10.7794 2.47278 10.7846 2.45455 8.60299 0.273036C8.25975 -0.070208 7.70328 -0.0701494 7.36004 0.273036C6.74609 0.886926 1.18557 6.43104 1.12944 6.48694C0.963907 6.652 0.870918 6.87618 0.871094 7.10997C0.87127 7.34376 0.964552 7.56777 1.13031 7.73259L4.04355 10.6293C4.13525 10.7507 4.21453 11.2508 4.26709 11.5824C4.37854 12.2856 4.52215 13.1895 5.02237 14.0092L4.93448 14.0971C3.90398 15.1276 3.90387 16.7954 4.93448 17.826C5.41161 18.3031 6.02773 18.5584 6.65369 18.5927C6.6879 19.2187 6.94326 19.8347 7.42039 20.3119C7.88404 20.7756 8.49002 21.0451 9.13977 21.08C9.17429 21.7056 9.42958 22.3211 9.90636 22.7978C10.3835 23.275 10.9996 23.5303 11.6256 23.5645C11.6598 24.1906 11.9151 24.8066 12.3923 25.2837C13.2146 26.1061 14.4274 26.2621 15.3939 25.7994L16.1212 26.5267C17.1516 27.5572 18.8196 27.5573 19.8501 26.5267C20.3137 26.063 20.5831 25.4571 20.6182 24.8074C21.2437 24.7729 21.8593 24.5176 22.336 24.0408C22.8128 23.564 23.0681 22.9484 23.1026 22.3229C23.7524 22.2879 24.3583 22.0185 24.822 21.5549C25.2991 21.0777 25.5544 20.4616 25.5887 19.8357C26.2147 19.8015 26.8307 19.5462 27.3079 19.069C28.3359 18.0409 28.3359 16.3681 27.3079 15.3401L26.6173 14.6496C27.459 13.3158 27.2875 11.8157 27.5816 11.273C27.5858 11.2673 27.5901 11.2613 27.5944 11.257ZM19.9023 5.19025L25.7897 11.0777C25.6005 11.8118 25.6171 12.6283 25.3164 13.3487L19.8501 7.8823C18.8196 6.85186 17.1517 6.85169 16.1211 7.8823L13.6352 10.3682C13.2916 10.7117 12.7358 10.7117 12.3923 10.3682C12.0496 10.0255 12.0496 9.46791 12.3923 9.12526L14.8782 6.63928C16.2903 5.22717 18.2313 5.39205 19.9023 5.19025ZM4.34068 8.44586L2.99566 7.10845C4.18301 5.92461 6.75453 3.36053 7.98096 2.13691L9.31532 3.47122L4.34068 8.44586ZM7.42033 16.583C7.07761 16.9257 6.52003 16.9257 6.17732 16.583C5.83384 16.2395 5.8339 15.6836 6.17737 15.34C6.65615 14.8613 6.92263 14.5948 7.42033 14.0971C7.76299 13.7544 8.32063 13.7544 8.66329 14.0971C9.00682 14.4406 9.00682 14.9964 8.66329 15.34L7.42033 16.583ZM9.9063 19.069C9.56276 19.4124 9.00688 19.4125 8.66335 19.069C8.32063 18.7262 8.32063 18.1687 8.66335 17.826L9.9063 16.583C10.2491 16.2403 10.8067 16.2404 11.1493 16.583C11.492 16.9257 11.492 17.4833 11.1493 17.826L9.9063 19.069ZM11.1493 21.5549C10.8066 21.2122 10.8066 20.6546 11.1493 20.3119L12.3923 19.069C12.7358 18.7254 13.2916 18.7254 13.6352 19.069C13.9788 19.4126 13.9788 19.9684 13.6352 20.3119L12.3923 21.5549C12.0496 21.8975 11.492 21.8975 11.1493 21.5549ZM16.1211 22.7978L14.8781 24.0407C14.5346 24.3843 13.9788 24.3843 13.6352 24.0408C13.2925 23.6981 13.2925 23.1405 13.6352 22.7978L14.8781 21.5549C14.8782 21.5548 14.8782 21.5548 14.8783 21.5547C15.221 21.2122 15.7782 21.2123 16.121 21.5548C16.121 21.5548 16.1211 21.5548 16.1211 21.5549L16.1214 21.5551C16.4638 21.8978 16.4637 22.4552 16.1211 22.7978ZM18.6071 25.2838C18.2636 25.6273 17.7077 25.6273 17.3641 25.2838L16.7426 24.6623L17.3641 24.0408C17.582 23.823 17.7532 23.576 17.8787 23.3125L18.6071 24.0408C18.9506 24.3843 18.9506 24.9402 18.6071 25.2838ZM26.0649 17.826C25.7222 18.1686 25.1647 18.1686 24.822 17.826L20.5653 13.5693C20.2221 13.2261 19.6656 13.2261 19.3224 13.5693C18.9791 13.9126 18.9791 14.469 19.3224 14.8123L23.579 19.0689C23.9217 19.4116 23.9217 19.9692 23.579 20.3119C23.2356 20.6552 22.6799 20.6555 22.3362 20.312C22.3362 20.312 22.3361 20.3119 22.336 20.3119C22.3359 20.3118 22.3359 20.3117 22.3357 20.3116L18.1343 16.1102C17.7911 15.767 17.2346 15.767 16.8914 16.1102C16.5481 16.4534 16.5481 17.0099 16.8914 17.3532L21.093 21.5548C21.4357 21.8975 21.4357 22.4551 21.093 22.7978C20.7503 23.1405 20.1928 23.1405 19.85 22.7978L17.3641 20.3118C16.8873 19.835 16.2718 19.5797 15.6463 19.5452C15.6113 18.8955 15.3418 18.2895 14.8782 17.8259C14.4145 17.3622 13.8086 17.0928 13.1589 17.0578C13.1243 16.4322 12.8691 15.8168 12.3923 15.34C11.9286 14.8763 11.3227 14.6069 10.6729 14.5719C10.6384 13.9463 10.3831 13.3308 9.9063 12.854C8.92837 11.8762 7.3676 11.8292 6.33282 12.7116C6.15728 12.2753 6.07917 11.7864 6.00323 11.3072C5.91118 10.7264 5.82235 10.1715 5.5493 9.72315L10.7799 4.49257C11.5973 4.82527 12.3738 4.7948 13.0892 4.76615C13.5111 4.74916 13.9223 4.73298 14.3521 4.78865C14.1069 4.9639 13.867 5.16447 13.6352 5.39627L11.1493 7.88218C10.1212 8.91022 10.1213 10.583 11.1493 11.6111C12.1798 12.6416 13.8476 12.6416 14.8782 11.6111L17.3641 9.12514C17.7076 8.78166 18.2635 8.7816 18.6071 9.12514L26.0649 16.5829C26.4076 16.9257 26.4076 17.4833 26.0649 17.826ZM21.7826 4.58462C22.0233 4.41646 21.9732 4.44845 23.7507 2.67112C24.5571 3.47749 23.7128 2.63672 28.7449 7.64183L26.7836 9.58569L21.7826 4.58462Z" fill="#D9D9D9"/>
</svg>
