<svg width="31" height="31" viewBox="0 0 31 31" fill="none" xmlns="http://www.w3.org/2000/svg">
<g clip-path="url(#clip0_235_16480)">
<path d="M27.0278 14.0042C27.0385 13.8557 27.0449 13.7069 27.0449 13.5581C27.0449 10.3812 24.6245 7.75893 21.5309 7.43872C20.7507 4.35248 17.9855 2.13232 14.7402 2.13232C12.2111 2.13232 9.87466 3.49394 8.62222 5.64932C6.44235 5.58798 4.40782 7.21533 4.11256 9.47989C1.96863 10.2215 0.560547 12.2139 0.560547 14.437C0.560547 17.3447 2.92627 19.7098 5.83398 19.7098H14.7894C14.7572 19.9986 14.7402 20.2918 14.7402 20.5887C14.7402 24.9505 18.2888 28.4995 22.6504 28.4995C27.012 28.4995 30.5605 24.9509 30.5605 20.5894C30.5605 17.8453 29.1557 15.4233 27.0278 14.0042ZM5.83398 17.9526C3.89536 17.9526 2.31836 16.3756 2.31836 14.437C2.31836 12.7861 3.50534 11.348 5.14047 11.0175L5.86969 10.8703C5.84245 10.1439 5.85046 10.1233 5.83421 10.0027C5.85687 8.59091 7.08185 7.40576 8.5293 7.40576C8.76184 7.40576 8.96051 7.45314 9.63777 7.56667L9.92067 6.95692C10.7856 5.09383 12.6773 3.89014 14.7402 3.89014C17.333 3.89014 19.5662 5.83655 19.9349 8.41765L20.0446 9.186C20.8054 9.16975 20.8257 9.17754 20.9374 9.1638C23.194 9.18646 25.0484 10.9184 25.2656 13.1241C24.4464 12.8362 23.5666 12.6792 22.6504 12.6792C19.2128 12.6792 16.2811 14.8836 15.1927 17.9526H5.83398ZM22.6504 26.7417C19.2579 26.7417 16.498 23.9818 16.498 20.5894C16.498 17.1969 19.2579 14.437 22.6504 14.437C26.0429 14.437 28.8027 17.1969 28.8027 20.5894C28.8027 23.9818 26.0429 26.7417 22.6504 26.7417Z" fill="#2F2D2C"/>
<path d="M21.7713 21.9831L19.756 19.968L18.5132 21.2108L21.7713 24.4692L26.7873 19.453L25.5444 18.2102L21.7713 21.9831Z" fill="#2F2D2C"/>
<path d="M30.3082 20.3418C30.3082 24.5711 26.8797 27.9996 22.6504 27.9996C18.4212 27.9996 14.9927 24.5711 14.9927 20.3418C14.9927 16.1126 18.4212 12.6841 22.6504 12.6841C26.8797 12.6841 30.3082 16.1126 30.3082 20.3418Z" fill="#FFB822" stroke="white"/>
<path d="M25.1253 21.6828C25.1253 22.1688 24.9573 22.5828 24.6213 22.9248C24.2853 23.2608 23.8323 23.4768 23.2623 23.5728V24.5898H22.1643V23.6088C21.3363 23.5308 20.6733 23.2968 20.1753 22.9068L20.6343 21.8988C21.1263 22.2588 21.6693 22.4658 22.2633 22.5198V20.8998C21.8553 20.7918 21.5133 20.6748 21.2373 20.5488C20.9613 20.4228 20.7273 20.2398 20.5353 19.9998C20.3493 19.7538 20.2563 19.4298 20.2563 19.0278C20.2563 18.5418 20.4303 18.1248 20.7783 17.7768C21.1323 17.4228 21.5943 17.1978 22.1643 17.1018V16.0938H23.2623V17.0928C23.6043 17.1408 23.9283 17.2248 24.2343 17.3448C24.5403 17.4588 24.7893 17.6028 24.9813 17.7768L24.5223 18.7848C24.0903 18.4728 23.6403 18.2748 23.1723 18.1908V19.8648C23.5683 19.9608 23.9013 20.0718 24.1713 20.1978C24.4413 20.3178 24.6663 20.4978 24.8463 20.7378C25.0323 20.9778 25.1253 21.2928 25.1253 21.6828ZM21.6603 18.9378C21.6603 19.0998 21.7113 19.2348 21.8133 19.3428C21.9213 19.4448 22.0713 19.5318 22.2633 19.6038V18.2178C22.0713 18.2718 21.9213 18.3618 21.8133 18.4878C21.7113 18.6078 21.6603 18.7578 21.6603 18.9378ZM23.1723 22.4478C23.5383 22.3398 23.7213 22.1058 23.7213 21.7458C23.7213 21.6078 23.6733 21.4938 23.5773 21.4038C23.4873 21.3078 23.3523 21.2238 23.1723 21.1518V22.4478Z" fill="#2F2D2C"/>
</g>
<defs>
<clipPath id="clip0_235_16480">
<rect width="30" height="30" fill="white" transform="translate(0.560547 0.315918)"/>
</clipPath>
</defs>
</svg>
