<svg width="21" height="19" viewBox="0 0 21 21" fill="none" xmlns="http://www.w3.org/2000/svg">
<path d="M19.2243 8.76685L19.2243 8.76687L19.2274 8.77062C19.9478 9.64327 19.8768 10.9669 19.0557 11.8523C18.5781 12.3653 18.0805 12.8549 17.5744 13.3529C17.3541 13.5698 17.1321 13.7882 16.9095 14.0109C16.8977 14.0226 16.8861 14.0347 16.8754 14.0462C16.7313 14.0502 16.5966 14.0566 16.468 14.0626C16.1378 14.0782 15.8474 14.0919 15.5385 14.06C15.1165 14.0165 14.76 13.8883 14.4425 13.5566L14.4425 13.5565L14.4394 13.5534C13.5224 12.6106 12.5932 11.6942 11.6686 10.7825L11.6679 10.7818C11.4208 10.535 11.1498 10.3381 10.8575 10.2129C11.1483 10.0878 11.4184 9.892 11.6661 9.6485L11.6667 9.6479C12.5943 8.73313 13.522 7.80549 14.4368 6.87783L14.4368 6.87786L14.4413 6.87316C14.7144 6.58955 14.9801 6.42534 15.3091 6.36918C15.806 6.32704 16.3127 6.32322 16.8114 6.35772C17.6927 7.09498 18.5171 7.89461 19.2243 8.76685ZM8.60608 9.6485C8.85339 9.89161 9.123 10.0872 9.41323 10.2123C9.1248 10.3347 8.85602 10.5257 8.60951 10.7638L8.60834 10.7649C7.69253 11.655 6.77724 12.5703 5.87804 13.4694L5.87669 13.4708C5.60934 13.7381 5.41792 13.895 5.18947 13.9572C5.12986 13.9717 5.05356 13.9811 4.93185 13.9946L4.90187 13.9979L4.87243 14.0045C4.77102 14.0272 4.67476 14.0464 4.58316 14.0617C4.51238 13.9956 4.37933 13.9044 4.18892 13.9044C4.17963 13.9044 4.17048 13.9046 4.16147 13.9051C4.155 13.9045 4.14898 13.904 4.1435 13.9035L4.13816 13.9031C4.09599 13.8996 4.07984 13.8979 4.06717 13.8958L4.06305 13.9183C3.93558 13.947 3.84394 14.0147 3.7905 14.0656C3.56696 14.0106 3.35135 13.8858 3.13941 13.614C2.79587 13.1637 2.36946 12.7617 1.98443 12.3987C1.87174 12.2924 1.76259 12.1895 1.66011 12.0898L1.66015 12.0897L1.65406 12.084C1.25021 11.7025 0.989786 11.2966 0.889482 10.8051L0.889563 10.8051L0.887493 10.7957C0.802086 10.4114 0.802086 10.0171 0.887493 9.63277L0.889943 9.62174L0.891939 9.61062C0.962347 9.21835 1.14206 8.86703 1.42758 8.57123C1.53017 8.46523 1.63222 8.35934 1.73398 8.25376C2.36644 7.59756 2.98761 6.95307 3.65519 6.36398C4.05671 6.32721 4.46031 6.33812 4.8922 6.36992C5.2546 6.42746 5.55854 6.61417 5.87538 6.93068C6.77774 7.84591 7.69252 8.7478 8.60406 9.6465L8.60551 9.64794L8.60608 9.6485ZM16.546 14.6103C16.7162 14.6025 16.886 14.5947 17.0541 14.5927L11.2805 11.1722C12.2063 12.0852 13.1322 12.9982 14.0451 13.9369C14.7676 14.6917 15.6619 14.6507 16.546 14.6103Z" fill="#FBFBFB" stroke="#2F2D2C" stroke-width="1.1"/>
<path d="M7.43325 5.68785L7.43326 5.68784L7.43094 5.68544C6.87654 5.11124 6.24103 4.67286 5.48437 4.47011C6.43261 3.51337 7.38952 2.55785 8.34642 1.6122C8.8353 1.1355 9.29884 0.839729 9.86113 0.818182H9.86136H9.86279H9.86423H9.86566H9.8671H9.86853H9.86997H9.8714H9.87284H9.87427H9.87571H9.87715H9.87858H9.88002H9.88146H9.88289H9.88433H9.88577H9.88721H9.88865H9.89009H9.89153H9.89297H9.89441H9.89585H9.89729H9.89873H9.90017H9.90161H9.90305H9.90449H9.90594H9.90738H9.90882H9.91026H9.91171H9.91315H9.9146H9.91604H9.91748H9.91893H9.92037H9.92182H9.92326H9.92471H9.92616H9.9276H9.92905H9.93049H9.93194H9.93339H9.93484H9.93628H9.93773H9.93918H9.94063H9.94208H9.94353H9.94498H9.94643H9.94788H9.94933H9.95078H9.95223H9.95368H9.95513H9.95658H9.95803H9.95948H9.96094H9.96239H9.96384H9.96529H9.96675H9.9682H9.96965H9.97111H9.97256H9.97402H9.97547H9.97693H9.97838H9.97984H9.98129H9.98275H9.9842H9.98566H9.98712H9.98857H9.99003H9.99149H9.99294H9.9944H9.99586H9.99732H9.99878H10.0002H10.0017H10.0032H10.0046H10.0061H10.0075H10.009H10.0105H10.0119H10.0134H10.0148H10.0163H10.0178H10.0192H10.0207H10.0221H10.0236H10.0251H10.0265H10.028H10.0295H10.0309H10.0324H10.0338H10.0353H10.0368H10.0382H10.0397H10.0412H10.0426H10.0441H10.0456H10.047H10.0485H10.05H10.0514H10.0529H10.0544H10.0558H10.0573H10.0588H10.0602H10.0617H10.0632H10.0646H10.0661H10.0676H10.069H10.0705H10.072H10.0735H10.0749H10.0764H10.0779H10.0793H10.0808H10.0823H10.0838H10.0852H10.0867H10.0882H10.0896H10.0911H10.0926H10.0941H10.0955H10.097H10.0985H10.0999H10.1014H10.1029H10.1044H10.1058H10.1073H10.1088H10.1103H10.1117H10.1132H10.1147H10.1162H10.1176H10.1191H10.1206H10.1221H10.1235H10.125H10.1265H10.128H10.1295H10.1309H10.1324H10.1339H10.1354H10.1368H10.1383H10.1398H10.1413H10.1428H10.1442H10.1457H10.1472H10.1487H10.1502H10.1516H10.1531H10.1546H10.1561H10.1576H10.159H10.1605H10.162H10.1635H10.165H10.1664H10.1679H10.1694H10.1709H10.1724H10.1739H10.1753H10.1768H10.1783H10.1798H10.1813H10.1828H10.1842H10.1857H10.1872H10.1887H10.1902H10.1917H10.1931H10.1946H10.1961H10.1976H10.1991H10.2006H10.2021H10.2035H10.205H10.2065H10.208H10.2095H10.211H10.2125H10.2139H10.2154H10.2169H10.2184H10.2199H10.2214H10.2229H10.2244H10.2258H10.2273H10.2288H10.2303H10.2318H10.2333H10.2348H10.2363H10.2378H10.2392H10.2407H10.2422H10.2437H10.2452H10.2467H10.2482H10.2497H10.2512H10.2526H10.2541H10.2556H10.2571H10.2586H10.2601H10.2616H10.2631H10.2646H10.2661H10.2676H10.2691H10.2705H10.272H10.2735H10.275H10.2765H10.278H10.2795H10.281H10.2825H10.284H10.2855H10.287H10.2885H10.29H10.2914H10.2929H10.2944H10.2959H10.2974H10.2989H10.3004H10.3019H10.3034H10.3049H10.3064H10.3079H10.3094H10.3109H10.3124H10.3139H10.3154H10.3169H10.3184H10.3199H10.3214H10.3228H10.3243H10.3258H10.3273H10.3288H10.3303H10.3318H10.3333H10.3348H10.3363H10.3378H10.3393H10.3408H10.3423H10.3438H10.3453H10.3468H10.3483H10.3498H10.3513H10.3528H10.3543H10.3558H10.3573H10.3588H10.3603H10.3618H10.3633H10.3648H10.3663H10.3678H10.3693H10.3708H10.3723H10.3738H10.3753H10.3768H10.3783H10.3798H10.3813H10.3828H10.3843H10.3858H10.3873H10.3888H10.3903H10.3918H10.3933H10.3948H10.3963H10.3978H10.3993H10.4008H10.4023H10.4038H10.4053H10.4068H10.4083H10.4098H10.4113H10.4128H10.4143H10.4158H10.4173H10.4188H10.4203H10.4218H10.4233H10.4248H10.4263H10.4278H10.4293H10.4308H10.4323H10.4338H10.4353H10.4369H10.4384H10.4399H10.4414H10.4429H10.4444H10.4459H10.4474H10.4489H10.4504H10.4519H10.4534H10.4549H10.4564H10.4579H10.4594H10.4609H10.4624H10.4639H10.4654H10.4669H10.4684H10.4699H10.4714H10.4729H10.4744H10.476H10.4775H10.479H10.4805H10.482H10.4835H10.485H10.4865H10.488H10.4895H10.491H10.4925H10.494H10.4955H10.497H10.4985H10.5H10.5015H10.503H10.5045H10.5061H10.5076H10.5091H10.5106H10.5121H10.5136H10.5151H10.5166H10.5181H10.5196H10.5211H10.5226H10.5241H10.5256H10.5271H10.5286H10.5301H10.5317H10.5332H10.5347H10.5362H10.5377H10.5392H10.5407H10.5422H10.5437H10.5452H10.5467H10.5482H10.5497H10.5512H10.5527H10.5542H10.5558H10.5573H10.5588H10.5603H10.5618H10.5633H10.5648H10.5663H10.5678H10.5693H10.5708H10.5723H10.5738H10.5753H10.5768H10.5784H10.5799H10.5814H10.5829H10.5844H10.5859H10.5874H10.5889H10.5904H10.5919H10.5934H10.5949H10.5964H10.5979H10.5994H10.601H10.6025H10.604H10.6055H10.607H10.6085H10.61V0.81833L10.6228 0.818033C11.0425 0.808272 11.419 0.954883 11.6741 1.21002L11.6741 1.21002L11.676 1.21189C12.5981 2.12509 13.499 3.06006 14.4164 4.01216C14.5506 4.1514 14.6851 4.29101 14.8201 4.43098C13.8195 4.68649 13.0667 5.39122 12.4273 6.09648C11.9936 6.57345 11.5372 7.01937 11.0666 7.47911C10.8517 7.68901 10.6339 7.90179 10.414 8.12172C10.2843 8.25136 10.1992 8.32194 10.1413 8.35911C10.1383 8.36103 10.1355 8.36279 10.1329 8.36441C10.1319 8.36376 10.1308 8.3631 10.1297 8.36241C10.0755 8.32807 9.99426 8.26138 9.86884 8.13608C9.53403 7.79599 9.20286 7.468 8.87455 7.14286C8.38865 6.66164 7.90903 6.18665 7.43325 5.68785ZM10.1016 8.38092C10.1016 8.38092 10.1019 8.38083 10.1023 8.38068L10.1016 8.38092Z" fill="#FBFBFB" stroke="#2F2D2C" stroke-width="1.1"/>
<path d="M10.6103 20.1863C11.1761 20.1477 11.7033 19.9677 12.1148 19.582C13.3235 18.4632 14.4937 17.3188 15.5995 16.0844M10.6103 20.1863V19.6363H10.6089H10.6075H10.606H10.6046H10.6032H10.6017H10.6003H10.5989H10.5974H10.596H10.5946H10.5931H10.5917H10.5908M10.6103 20.1863L10.5729 19.6376C10.5789 19.6372 10.5848 19.6368 10.5908 19.6363M10.6103 20.1863H9.85168C9.32447 20.1349 8.81012 19.9806 8.45008 19.6205C7.45484 18.6443 6.48056 17.647 5.47574 16.6185C5.29331 16.4318 5.10986 16.244 4.92511 16.0551L10.3312 12.211M10.5908 19.6363C11.0568 19.6016 11.446 19.4551 11.7386 19.1807L11.7412 19.1783L11.7412 19.1783C12.8268 18.1736 13.8756 17.153 14.8719 16.068M10.5908 19.6363H10.5903H10.5888H10.5874H10.586H10.5845H10.5831H10.5817H10.5802H10.5788H10.5773H10.5759H10.5745H10.573H10.5716H10.5701H10.5687H10.5673H10.5658H10.5644H10.5629H10.5615H10.5601H10.5586H10.5572H10.5557H10.5543H10.5529H10.5514H10.55H10.5485H10.5471H10.5456H10.5442H10.5427H10.5413H10.5399H10.5384H10.537H10.5355H10.5341H10.5326H10.5312H10.5297H10.5283H10.5268H10.5254H10.5239H10.5225H10.521H10.5196H10.5181H10.5167H10.5152H10.5138H10.5123H10.5109H10.5094H10.508H10.5065H10.5051H10.5036H10.5022H10.5007H10.4993H10.4978H10.4964H10.4949H10.4935H10.492H10.4906H10.4891H10.4877H10.4862H10.4847H10.4833H10.4818H10.4804H10.4789H10.4775H10.476H10.4746H10.4731H10.4716H10.4702H10.4687H10.4673H10.4658H10.4644H10.4629H10.4614H10.46H10.4585H10.4571H10.4556H10.4541H10.4527H10.4512H10.4498H10.4483H10.4468H10.4454H10.4439H10.4425H10.441H10.4395H10.4381H10.4366H10.4351H10.4337H10.4322H10.4308H10.4293H10.4278H10.4264H10.4249H10.4234H10.422H10.4205H10.419H10.4176H10.4161H10.4146H10.4132H10.4117H10.4102H10.4088H10.4073H10.4058H10.4044H10.4029H10.4014H10.4H10.3985H10.397H10.3956H10.3941H10.3926H10.3912H10.3897H10.3882H10.3867H10.3853H10.3838H10.3823H10.3809H10.3794H10.3779H10.3765H10.375H10.3735H10.372H10.3706H10.3691H10.3676H10.3661H10.3647H10.3632H10.3617H10.3603H10.3588H10.3573H10.3558H10.3544H10.3529H10.3514H10.3499H10.3485H10.347H10.3455H10.344H10.3426H10.3411H10.3396H10.3381H10.3366H10.3352H10.3337H10.3322H10.3307H10.3293H10.3278H10.3263H10.3248H10.3234H10.3219H10.3204H10.3189H10.3174H10.316H10.3145H10.313H10.3115H10.31H10.3086H10.3071H10.3056H10.3041H10.3026H10.3012H10.2997H10.2982H10.2967H10.2952H10.2937H10.2923H10.2908H10.2893H10.2878H10.2863H10.2849H10.2834H10.2819H10.2804H10.2789H10.2774H10.276H10.2745H10.273H10.2715H10.27H10.2685H10.267H10.2656H10.2641H10.2626H10.2611H10.2596H10.2581H10.2566H10.2552H10.2537H10.2522H10.2507H10.2492H10.2477H10.2462H10.2448H10.2433H10.2418H10.2403H10.2388H10.2373H10.2358H10.2343H10.2329H10.2314H10.2299H10.2284H10.2269H10.2254H10.2239H10.2224H10.2209H10.2195H10.218H10.2165H10.215H10.2135H10.212H10.2105H10.209H10.2075H10.206H10.2046H10.2031H10.2016H10.2001H10.1986H10.1971H10.1956H10.1941H10.1926H10.1911H10.1896H10.1881H10.1866H10.1852H10.1837H10.1822H10.1807H10.1792H10.1777H10.1762H10.1747H10.1732H10.1717H10.1702H10.1687H10.1672H10.1657H10.1642H10.1628H10.1613H10.1598H10.1583H10.1568H10.1553H10.1538H10.1523H10.1508H10.1493H10.1478H10.1463H10.1448H10.1433H10.1418H10.1403H10.1388H10.1373H10.1358H10.1343H10.1328H10.1313H10.1298H10.1283H10.1268H10.1254H10.1239H10.1224H10.1209H10.1194H10.1179H10.1164H10.1149H10.1134H10.1119H10.1104H10.1089H10.1074H10.1059H10.1044H10.1029H10.1014H10.0999H10.0984H10.0969H10.0954H10.0939H10.0924H10.0909H10.0894H10.0879H10.0864H10.0849H10.0834H10.0819H10.0804H10.0789H10.0774H10.0759H10.0744H10.0729H10.0714H10.0699H10.0684H10.0669H10.0654H10.0639H10.0624H10.0609H10.0594H10.0579H10.0564H10.0549H10.0534H10.0519H10.0504H10.0489H10.0474H10.0459H10.0444H10.0429H10.0414H10.0399H10.0383H10.0368H10.0353H10.0338H10.0323H10.0308H10.0293H10.0278H10.0263H10.0248H10.0233H10.0218H10.0203H10.0188H10.0173H10.0158H10.0143H10.0128H10.0113H10.0098H10.0083H10.0068H10.0053H10.0038H10.0023H10.0008H9.99926H9.99776H9.99625H9.99475H9.99324H9.99174H9.99024H9.98873H9.98723H9.98572H9.98422H9.98271H9.98121H9.9797H9.9782H9.97669H9.97519H9.97368H9.97218H9.97067H9.96917H9.96766H9.96616H9.96465H9.96315H9.96164H9.96014H9.95863H9.95713H9.95562H9.95412H9.95261H9.9511H9.9496H9.94809H9.94659H9.94508H9.94358H9.94207H9.94056H9.93906H9.93755H9.93605H9.93454H9.93303H9.93153H9.93002H9.92852H9.92701H9.9255H9.924H9.92249H9.92098H9.91948H9.91797H9.91647H9.91496H9.91345H9.91195H9.91044H9.90893H9.90743H9.90592H9.90441H9.90291H9.9014H9.89989H9.89839H9.89688H9.89537H9.89387H9.89236H9.89085H9.88935H9.88784H9.88633H9.88483H9.88332H9.88181H9.88031H9.87943C9.42082 19.5881 9.06486 19.4575 8.83898 19.2316L8.839 19.2316L8.83523 19.2279C7.84451 18.2561 6.87619 17.2649 5.8727 16.2378C5.77421 16.137 5.67539 16.0358 5.57617 15.9343C6.56727 15.6425 7.26987 14.9195 7.86963 14.2921C8.20499 13.9441 8.54738 13.6048 8.89504 13.2604L8.89723 13.2582C9.24297 12.9157 9.59393 12.568 9.93911 12.2098L9.93914 12.2098L9.94358 12.2051C10.0487 12.0934 10.1089 12.061 10.1304 12.0524C10.1522 12.0606 10.2166 12.0929 10.3312 12.211M14.8719 16.068C15.1073 16.12 15.3217 16.0927 15.456 16.0756C15.4606 16.075 15.465 16.0744 15.4694 16.0739C15.498 16.0703 15.524 16.0671 15.5478 16.0643L15.5995 16.0844M14.8719 16.068C14.7422 16.0393 14.6061 15.9866 14.4736 15.8947C13.781 15.5856 13.2142 15.1201 12.7237 14.6164L12.7227 14.6153C12.335 14.2149 11.9371 13.8202 11.5346 13.4209L11.5327 13.419C11.1322 13.0217 10.7272 12.6199 10.3312 12.211M14.8719 16.068C14.9622 15.9696 15.0522 15.8706 15.1417 15.7711C15.2017 15.6675 15.2765 15.5909 15.3443 15.5351M15.5995 16.0844L15.5738 16.0613C15.5873 16.0598 15.5999 16.0584 15.6119 16.0572C15.6073 16.0659 15.6032 16.0749 15.5995 16.0844ZM16.0882 15.5829C16.077 15.6649 16.0387 15.7221 15.9879 15.7676L16.0882 15.5829ZM16.0882 15.5829C15.9124 15.4875 15.7308 15.4901 15.5509 15.5096L16.0882 15.5829ZM15.3443 15.5351C15.1358 15.5591 14.9338 15.5633 14.7509 15.4157C14.1208 15.1457 13.5936 14.7214 13.1178 14.2327C12.7256 13.8277 12.3238 13.4291 11.9219 13.0304C11.5201 12.6318 11.1183 12.2332 10.7261 11.8281L15.3443 15.5351ZM15.3443 15.5351L10.3312 12.211M10.1394 12.0494C10.1394 12.0494 10.1389 12.0496 10.1379 12.0497L10.1394 12.0494Z" fill="#FBFBFB" stroke="#2F2D2C" stroke-width="1.1"/>
</svg>
