<svg width="12" viewBox="0 0 15 19" fill="none" xmlns="http://www.w3.org/2000/svg">
<path fill-rule="evenodd" clip-rule="evenodd" d="M3.21596 2.12116C2.87497 2.12116 2.54794 2.25662 2.30682 2.49774C2.0657 2.73886 1.93025 3.06589 1.93025 3.40688V16.264C1.93025 16.605 2.0657 16.932 2.30682 17.1732C2.54794 17.4143 2.87497 17.5497 3.21596 17.5497H12.216C12.557 17.5497 12.884 17.4143 13.1251 17.1732C13.3662 16.932 13.5017 16.605 13.5017 16.264V8.43934C13.5017 8.43931 13.5017 8.43928 13.5017 8.43924C13.5016 8.26887 13.4339 8.10548 13.3135 7.98497C13.3135 7.98496 13.3135 7.98494 13.3134 7.98492L7.63792 2.3094C7.51741 2.18892 7.354 2.12121 7.18359 2.12116C7.18356 2.12116 7.18353 2.12116 7.1835 2.12116H3.21596ZM1.39769 1.5886C1.87992 1.10637 2.53397 0.835449 3.21596 0.835449H7.18369C7.695 0.835526 8.18536 1.03865 8.54695 1.40016L8.547 1.40021L14.2227 7.07589C14.5842 7.43748 14.7873 7.92783 14.7874 8.43915V16.264C14.7874 16.946 14.5165 17.6001 14.0342 18.0823C13.552 18.5645 12.8979 18.8354 12.216 18.8354H3.21596C2.53397 18.8354 1.87992 18.5645 1.39769 18.0823C0.915449 17.6001 0.644531 16.946 0.644531 16.264V3.40688C0.644531 2.72489 0.915449 2.07084 1.39769 1.5886Z" fill="#494545"/>
<path fill-rule="evenodd" clip-rule="evenodd" d="M7.47051 1.20569C7.71073 1.10619 7.98723 1.16119 8.17109 1.34505L14.2782 7.45219C14.4621 7.63604 14.5171 7.91255 14.4176 8.15277C14.3181 8.39299 14.0837 8.54961 13.8237 8.54961H9.00223C8.49074 8.54961 8.0002 8.34643 7.63853 7.98475C7.27685 7.62307 7.07366 7.13253 7.07366 6.62104V1.79961C7.07366 1.5396 7.23029 1.30519 7.47051 1.20569ZM8.35938 3.35161V6.62104C8.35938 6.79154 8.4271 6.95505 8.54766 7.07561C8.66822 7.19617 8.83174 7.2639 9.00223 7.2639H12.2717L8.35938 3.35161ZM3.85938 11.121C3.85938 10.766 4.14719 10.4782 4.50223 10.4782H10.9308C11.2858 10.4782 11.5737 10.766 11.5737 11.121C11.5737 11.4761 11.2858 11.7639 10.9308 11.7639H4.50223C4.14719 11.7639 3.85938 11.4761 3.85938 11.121ZM3.85938 14.3353C3.85938 13.9803 4.14719 13.6925 4.50223 13.6925H10.9308C11.2858 13.6925 11.5737 13.9803 11.5737 14.3353C11.5737 14.6904 11.2858 14.9782 10.9308 14.9782H4.50223C4.14719 14.9782 3.85938 14.6904 3.85938 14.3353Z" fill="#494545"/>
</svg>
