<svg width="21" height="21" viewBox="0 0 21 21" fill="none" xmlns="http://www.w3.org/2000/svg">
<path fill-rule="evenodd" clip-rule="evenodd" d="M8.62681 0.991699C6.98095 0.991699 5.37205 1.47975 4.00356 2.39415C2.63508 3.30854 1.56847 4.6082 0.938626 6.12878C0.308781 7.64936 0.143985 9.32256 0.465077 10.9368C0.786169 12.551 1.57873 14.0338 2.74253 15.1976C3.90633 16.3614 5.3891 17.154 7.00334 17.4751C8.61758 17.7962 10.2908 17.6314 11.8114 17.0015C12.5862 16.6806 13.3036 16.2462 13.942 15.7164L18.992 20.7664C19.2924 21.0668 19.7795 21.0668 20.0799 20.7664C20.3803 20.466 20.3803 19.9789 20.0799 19.6785L15.0298 14.6285C15.2132 14.4076 15.3855 14.1768 15.546 13.9366C16.4604 12.5681 16.9484 10.9592 16.9484 9.31333V9.31328C16.9483 7.10631 16.0715 4.98976 14.511 3.42919C12.9504 1.86862 10.8338 0.99184 8.62686 0.991699L8.62681 1.76093V0.991699ZM13.4231 4.51705C12.151 3.24498 10.4258 2.53029 8.62681 2.53016L15.41 9.31333C15.4099 7.51436 14.6952 5.78911 13.4231 4.51705ZM4.85828 3.67333C5.97376 2.928 7.2852 2.53017 8.62676 2.53016L15.41 9.31338C15.41 10.655 15.0121 11.9664 14.2668 13.0819C13.5215 14.1974 12.4621 15.0668 11.2226 15.5802C9.98316 16.0936 8.61929 16.2279 7.30348 15.9662C5.98768 15.7044 4.77903 15.0584 3.83039 14.1098C2.88174 13.1611 2.23571 11.9525 1.97398 10.6367C1.71225 9.32086 1.84658 7.95699 2.35998 6.71753C2.87338 5.47806 3.7428 4.41868 4.85828 3.67333Z" fill="#494545"/>
</svg>
