<svg width="19" height="16" viewBox="0 0 19 21" fill="none" xmlns="http://www.w3.org/2000/svg">
    <path d="M15.5878 14.6165C14.8248 14.6165 14.142 14.9177 13.62 15.3896L6.46132 11.223C6.51152 10.992 6.55168 10.7611 6.55168 10.5201C6.55168 10.2792 6.51152 10.0483 6.46132 9.81733L13.5396 5.69082C14.0818 6.19283 14.7947 6.50408 15.5878 6.50408C17.2545 6.50408 18.5999 5.1587 18.5999 3.49203C18.5999 1.82536 17.2545 0.47998 15.5878 0.47998C13.9212 0.47998 12.5758 1.82536 12.5758 3.49203C12.5758 3.73299 12.6159 3.96392 12.6661 4.19484L5.58783 8.32135C5.04566 7.81934 4.33281 7.50809 3.53964 7.50809C1.87297 7.50809 0.527588 8.85347 0.527588 10.5201C0.527588 12.1868 1.87297 13.5322 3.53964 13.5322C4.33281 13.5322 5.04566 13.2209 5.58783 12.7189L12.7364 16.8956C12.6862 17.1065 12.6561 17.3274 12.6561 17.5483C12.6561 19.1647 13.9714 20.48 15.5878 20.48C17.2043 20.48 18.5196 19.1647 18.5196 17.5483C18.5196 15.9318 17.2043 14.6165 15.5878 14.6165Z" fill="#2F2D2C"/>
</svg>
