<svg width="16" height="21" viewBox="0 0 18 21" fill="none" xmlns="http://www.w3.org/2000/svg">
<path fill-rule="evenodd" clip-rule="evenodd" d="M11.0093 2.15934C11.2485 2.30495 11.2485 2.65215 11.0093 2.79777L8.33757 4.42447C8.08852 4.5761 7.76949 4.39683 7.76949 4.10526V3.44763C4.2677 3.92153 1.56836 6.92278 1.56836 10.5545C1.56836 12.3201 2.20541 13.935 3.26309 15.1848C3.53068 15.501 3.49128 15.9742 3.1751 16.2418C2.85892 16.5094 2.38568 16.47 2.1181 16.1538C0.839807 14.6434 0.0683594 12.688 0.0683594 10.5545C0.0683594 6.09327 3.43706 2.41886 7.76949 1.93621V0.851848C7.76949 0.56027 8.08852 0.381002 8.33757 0.532636L11.0093 2.15934ZM14.3854 4.94629C14.7053 4.68317 15.1779 4.72921 15.441 5.04911C16.6725 6.5463 17.4124 8.46498 17.4124 10.5545C17.4124 14.9052 14.2085 18.5077 10.0313 19.1311V20.1032C10.0313 20.3948 9.71226 20.5741 9.46321 20.4224L6.79148 18.7957C6.55232 18.6501 6.55232 18.3029 6.79148 18.1573L9.46321 16.5306C9.71226 16.379 10.0313 16.5582 10.0313 16.8498V17.6106C13.3762 17.0027 15.9124 14.0748 15.9124 10.5545C15.9124 8.82517 15.3013 7.24059 14.2825 6.00196C14.0194 5.68205 14.0655 5.20941 14.3854 4.94629Z" fill="#494545"/>
</svg>
