<svg width="41" height="41" viewBox="0 0 41 41" fill="none" xmlns="http://www.w3.org/2000/svg">
<g clip-path="url(#clip0_7_475)">
<path d="M33.4214 20.0053V8.63812C33.4214 7.22577 32.2725 6.07709 30.8604 6.07709H2.93103C1.51868 6.07709 0.369385 7.22607 0.369385 8.63812V28.3174C0.369385 29.7297 1.51868 30.879 2.93103 30.879H25.6736C26.8931 33.5252 29.5704 35.3669 32.6701 35.3669C36.9154 35.3669 40.3694 31.913 40.3694 27.6677C40.3694 23.676 37.3155 20.3843 33.4214 20.0053ZM2.93103 7.63959H30.8604C31.4109 7.63959 31.8589 8.08759 31.8589 8.63812V10.6254H1.93188V8.63812C1.93188 8.08759 2.38019 7.63959 2.93103 7.63959ZM2.93103 29.3165C2.38019 29.3165 1.93188 28.8682 1.93188 28.3174V16.0154H13.3622C13.7938 16.0154 14.1435 15.6657 14.1435 15.2342C14.1435 14.8027 13.7938 14.4529 13.3622 14.4529H1.93188V12.1879H31.8589V14.4529H20.4286C19.9971 14.4529 19.6473 14.8027 19.6473 15.2342C19.6473 15.6657 19.9971 16.0154 20.4286 16.0154H31.8589V20.0114C30.9416 20.1078 30.0718 20.3663 29.2787 20.7573V20.1863C29.2787 19.7548 28.929 19.405 28.4974 19.405H21.038C20.6065 19.405 20.2568 19.7548 20.2568 20.1863V24.8738C20.2568 25.305 20.6065 25.655 21.038 25.655H25.2388C25.0645 26.2968 24.9711 26.9716 24.9711 27.6677C24.9711 28.2335 25.0331 28.7852 25.1494 29.3165H2.93103ZM25.8534 24.0925H21.8193V20.9675H27.7162V21.7793C26.9557 22.4202 26.3206 23.2054 25.8534 24.0925ZM32.6701 33.8044C29.2866 33.8044 26.5336 31.0515 26.5336 27.668C26.5336 24.2842 29.2866 21.5312 32.6701 21.5312C36.0539 21.5312 38.8069 24.2842 38.8069 27.668C38.8069 31.0515 36.0539 33.8044 32.6701 33.8044Z" fill="#202430"/>
<circle cx="30.3694" cy="27.6678" r="9.5" fill="#E21E22" stroke="white"/>
<path d="M12.114 18.726C11.4234 18.726 10.7755 18.9109 10.2167 19.2338C9.64209 18.9003 8.9942 18.726 8.3161 18.726C6.21832 18.726 4.51208 20.4326 4.51208 22.53C4.51208 24.6275 6.21832 26.3337 8.3161 26.3337C8.9942 26.3337 9.64209 26.1595 10.2167 25.8262C10.7755 26.1491 11.4234 26.3337 12.114 26.3337C14.2115 26.3337 15.9177 24.6275 15.9177 22.53C15.9177 20.4326 14.2115 18.726 12.114 18.726ZM6.07458 22.53C6.07458 21.2941 7.08014 20.2885 8.3161 20.2885C8.54254 20.2885 8.76318 20.3218 8.97345 20.3859C8.55505 20.9968 8.31 21.7354 8.31 22.53C8.31 23.3247 8.55505 24.0632 8.97345 24.6739C8.76318 24.7383 8.54254 24.7715 8.3161 24.7715C7.08014 24.7712 6.07458 23.7657 6.07458 22.53ZM12.114 24.7712C10.8781 24.7712 9.8725 23.7657 9.8725 22.53C9.8725 21.2941 10.8781 20.2885 12.114 20.2885C13.35 20.2885 14.3552 21.2941 14.3552 22.53C14.3552 23.766 13.35 24.7712 12.114 24.7712Z" fill="#202430"/>
<path d="M33.7945 24.2427C33.3027 23.751 32.506 23.751 32.0142 24.2427L30.3691 25.8873L28.7246 24.2427C28.2328 23.751 27.4361 23.751 26.9443 24.2427C26.4525 24.734 26.4525 25.5312 26.9443 26.023L28.5888 27.6676L26.9443 29.3126C26.4525 29.8039 26.4525 30.6011 26.9443 31.0929C27.1902 31.3388 27.5123 31.4618 27.8344 31.4618C28.1566 31.4618 28.4787 31.3388 28.7246 31.0929L30.3691 29.4484L32.0142 31.0929C32.2601 31.3388 32.5822 31.4618 32.9043 31.4618C33.2265 31.4618 33.5486 31.3388 33.7945 31.0929C34.2863 30.6016 34.2863 29.8044 33.7945 29.3126L32.1499 27.6676L33.7945 26.023C34.2863 25.5317 34.2863 24.734 33.7945 24.2427Z" fill="white"/>
<path d="M16.9099 16.0158C16.5791 16.0158 16.2766 15.7982 16.1701 15.4854C16.0694 15.1897 16.1604 14.8534 16.3947 14.6474C16.6505 14.4227 17.0332 14.3913 17.3222 14.5708C17.591 14.7377 17.736 15.063 17.678 15.3743C17.6096 15.7405 17.2837 16.0158 16.9099 16.0158Z" fill="#202430"/>
</g>
<defs>
<clipPath id="clip0_7_475">
<rect width="40" height="40" fill="white" transform="translate(0.369385 0.686462)"/>
</clipPath>
</defs>
</svg>
