<svg width="20" viewBox="0 0 27 26" fill="none" xmlns="http://www.w3.org/2000/svg">
<path d="M25.3331 10.4626C24.3468 9.24619 23.1961 8.14482 21.9797 7.14209C21.2235 7.07634 20.4509 7.07634 19.6947 7.14209C19.0701 7.24072 18.5934 7.55305 18.166 7.99688C16.9988 9.18044 15.8153 10.364 14.6317 11.5311C13.6619 12.4845 12.6756 12.4845 11.7057 11.5311C10.5386 10.3804 9.37147 9.22975 8.22079 8.06263C7.74408 7.58592 7.21806 7.24072 6.54409 7.14209C5.88656 7.09277 5.24546 7.07633 4.58793 7.15853C3.503 8.09551 2.5167 9.14756 1.53041 10.1667C1.07013 10.6434 0.774245 11.2188 0.659177 11.8599C0.52767 12.4517 0.52767 13.0599 0.659177 13.6517C0.82356 14.4571 1.25096 15.0982 1.84273 15.6571C2.46739 16.2653 3.14136 16.8407 3.66739 17.5311C4.47286 18.5667 5.49204 18.5338 6.5934 18.2873C6.74135 18.2708 6.88929 18.2544 7.0208 18.2215C7.51395 18.09 7.87559 17.7612 8.22079 17.416C9.37147 16.2653 10.5386 15.0982 11.7057 13.964C12.6756 13.027 13.6783 13.027 14.6317 13.9804C15.8153 15.1475 16.9988 16.3147 18.166 17.5147C19.2673 18.6653 20.681 18.3694 22.0125 18.353C22.1276 18.353 22.2262 18.2051 22.3249 18.1064C23.2454 17.1859 24.1988 16.2818 25.0865 15.3284C26.3522 13.964 26.5002 11.8763 25.3331 10.4626ZM5.54135 18.1886C5.45916 18.1886 5.37697 18.1722 5.29478 18.1557C5.39341 18.1722 5.49204 18.1722 5.59067 18.1886C5.57423 18.1722 5.55779 18.1722 5.54135 18.1886Z" fill="#FBFBFB"/>
<path fill-rule="evenodd" clip-rule="evenodd" d="M24.3621 11.2499L24.3621 11.2499C23.5216 10.2132 22.5428 9.25365 21.4883 8.36038C20.9441 8.33087 20.3937 8.33846 19.8528 8.38317C19.5877 8.43306 19.3525 8.56679 19.0664 8.86393L19.0612 8.86928L19.056 8.87456C17.8848 10.0623 16.6971 11.2499 15.5094 12.4212L15.508 12.4225C15.389 12.5395 15.2643 12.6508 15.134 12.7542C15.2659 12.8596 15.3921 12.9733 15.5124 13.0933L15.514 13.0949C16.6945 14.2591 17.8858 15.4338 19.062 16.6431L19.069 16.6503L19.069 16.6503C19.3623 16.9567 19.6835 17.0819 20.1312 17.1281C20.4883 17.1649 20.7975 17.1499 21.1872 17.131C21.3001 17.1255 21.4196 17.1197 21.549 17.1147C21.8037 16.861 22.0552 16.6134 22.3037 16.3689C22.9464 15.7365 23.5686 15.1242 24.1707 14.4776C25.0524 13.5266 25.0987 12.1422 24.3691 11.2584L24.3621 11.2499ZM25.0865 15.3284C24.4648 15.9961 23.8109 16.6396 23.1586 17.2815C22.8795 17.5562 22.6007 17.8306 22.3249 18.1064C22.3023 18.129 22.2797 18.1541 22.257 18.1795C22.1802 18.265 22.1013 18.353 22.0125 18.353C21.7976 18.3557 21.5805 18.3656 21.363 18.3756C20.2328 18.4273 19.0896 18.4796 18.166 17.5147C16.9989 16.3147 15.8153 15.1476 14.6318 13.9805L14.6317 13.9804C14.3722 13.7209 14.1089 13.532 13.8437 13.4134C13.3959 13.2132 12.9424 13.2135 12.4912 13.4128C12.2281 13.529 11.9657 13.7128 11.7057 13.964C10.5386 15.0982 9.37147 16.2653 8.22079 17.416C7.94256 17.6943 7.65365 17.9618 7.29382 18.124C7.2072 18.163 7.11647 18.196 7.0208 18.2215C6.88929 18.2544 6.74135 18.2708 6.5934 18.2873C6.31375 18.3499 6.03939 18.3987 5.77248 18.4198C5.69783 18.4256 5.62377 18.4294 5.55034 18.4306C5.54734 18.4307 5.54434 18.4307 5.54135 18.4307C5.47764 18.4316 5.41441 18.4307 5.35168 18.4276C5.31784 18.426 5.28414 18.4237 5.2506 18.4208C5.2477 18.4206 5.24481 18.4203 5.24192 18.4201C5.23664 18.4196 5.23138 18.4191 5.22611 18.4186C4.65348 18.3638 4.12582 18.1205 3.66739 17.5311C3.26639 17.0048 2.77943 16.5454 2.29388 16.0873C2.14248 15.9444 1.99121 15.8017 1.84273 15.6571C1.25096 15.0982 0.82356 14.4571 0.659177 13.6517C0.52767 13.0599 0.52767 12.4517 0.659177 11.8599C0.774245 11.2188 1.07013 10.6434 1.53041 10.1667C1.65996 10.0329 1.78951 9.89843 1.91929 9.76376C2.77751 8.87317 3.64551 7.97243 4.58793 7.15853C5.24546 7.07633 5.88656 7.09277 6.54409 7.14209C7.21806 7.24072 7.74408 7.58592 8.22079 8.06263C9.37143 9.22971 10.5385 10.3803 11.7056 11.531L11.7057 11.5311C11.9676 11.7886 12.2308 11.9765 12.4944 12.095C12.9433 12.2965 13.3937 12.2966 13.8425 12.0952C14.1063 11.9768 14.3696 11.7888 14.6317 11.5311C15.8153 10.364 16.9988 9.18044 18.166 7.99688C18.5934 7.55305 19.0701 7.24072 19.6947 7.14209C20.4509 7.07634 21.2235 7.07634 21.9797 7.14209C23.1961 8.14482 24.3468 9.24619 25.3331 10.4626C26.5002 11.8763 26.3522 13.964 25.0865 15.3284ZM11.1978 12.7498C11.0696 12.6476 10.9467 12.5378 10.8294 12.4225L10.8281 12.4212L10.8249 12.4181C9.66101 11.2706 8.48978 10.1158 7.33397 8.94358C6.98726 8.59757 6.70366 8.43805 6.40018 8.38487C5.93891 8.35154 5.51782 8.339 5.10964 8.36469C4.32598 9.06824 3.58898 9.83282 2.82301 10.6274C2.6927 10.7626 2.56155 10.8987 2.42919 11.0355C2.1383 11.3369 1.96003 11.6879 1.88952 12.0807L1.88498 12.106L1.87941 12.131C1.78759 12.5442 1.78759 12.9673 1.87941 13.3805L1.88176 13.3911L1.88393 13.4017C1.98403 13.8922 2.24346 14.3162 2.70101 14.7484L2.70793 14.7549L2.71476 14.7615C2.83316 14.8768 2.96376 14.9999 3.10182 15.1299C3.59688 15.5963 4.18796 16.1532 4.65725 16.7677C4.77336 16.9162 4.88072 17.0084 4.98316 17.0672C5.12214 16.9955 5.29464 16.9383 5.49932 16.928L5.50028 16.9228C5.49736 16.9223 5.49518 16.922 5.49518 16.922C5.49519 16.9219 5.50644 16.9232 5.54586 16.9264C5.55255 16.9263 5.55926 16.9263 5.56601 16.9263C5.82573 16.9263 6.03717 17.002 6.19782 17.0938C6.23747 17.0857 6.27828 17.0769 6.32031 17.0674L6.38722 17.0525L6.45536 17.0449C6.60996 17.0277 6.67297 17.0189 6.70894 17.0109C6.84628 16.9713 7.00234 16.8667 7.33691 16.5321L7.33999 16.5291C8.48859 15.3805 9.66099 14.2081 10.8345 13.0676L10.8372 13.065C10.9522 12.9538 11.0725 12.8482 11.1978 12.7498ZM5.53342 18.1807C5.50319 18.1772 5.47295 18.1747 5.44272 18.1722C5.39341 18.1681 5.34409 18.164 5.29478 18.1557C5.37697 18.1722 5.45916 18.1886 5.54135 18.1886C5.54374 18.1862 5.54612 18.1842 5.54851 18.1825C5.54612 18.1822 5.54374 18.1819 5.54135 18.1816C5.53871 18.1813 5.53606 18.181 5.53342 18.1807Z" fill="#2F2D2C"/>
<path d="M9.2064 7.45473C10.2256 8.52322 11.2941 9.54239 12.3297 10.5944C13.0201 11.2849 13.316 11.2849 14.0228 10.578C14.8941 9.70677 15.7982 8.86842 16.6201 7.96431C17.7379 6.73144 18.9379 5.72871 20.7297 5.97528C19.0036 4.19994 17.3434 2.44105 15.6338 0.747902C15.1571 0.271191 14.4831 0.0246165 13.7763 0.0410548C13.4475 0.0410548 13.1187 0.0410548 12.8064 0.0410548C11.8201 0.0739314 11.0639 0.599957 10.39 1.25749C8.99271 2.63831 7.59545 4.03556 6.21463 5.43282C6.08313 5.56432 5.82011 5.64651 5.88587 5.95884C7.23381 5.92597 8.28586 6.50131 9.2064 7.45473Z" fill="#FBFBFB"/>
<path fill-rule="evenodd" clip-rule="evenodd" d="M10.1109 6.59196C10.7166 7.22697 11.3174 7.82189 11.9323 8.43066C12.3365 8.8309 12.7467 9.23713 13.1684 9.66468C13.4495 9.38405 13.7235 9.11637 13.9914 8.85472C14.5866 8.27329 15.1513 7.72169 15.6945 7.12418C16.354 6.39681 17.1557 5.61193 18.1793 5.13499C17.031 3.94328 15.9069 2.77766 14.7542 1.63604L14.7499 1.6318C14.5408 1.42275 14.2094 1.28132 13.8053 1.29072L13.7908 1.29105H12.8302C12.3175 1.3138 11.851 1.57898 11.2656 2.14954C10.2456 3.15753 9.22567 4.1743 8.21213 5.19342C8.92686 5.52726 9.5519 6.01295 10.1057 6.58648L10.1109 6.59196ZM7.25693 6.1565C7.20275 6.13855 7.14806 6.12176 7.09282 6.10614C7.00686 6.08184 6.9196 6.0604 6.83098 6.04191C6.82793 6.04127 6.82488 6.04064 6.82183 6.04001C6.52586 5.97899 6.21466 5.95082 5.88587 5.95884C5.87283 5.89691 5.87272 5.84403 5.88195 5.79801C5.90825 5.66683 6.01046 5.59149 6.10542 5.52149C6.14512 5.49223 6.18355 5.4639 6.21463 5.43282C6.43081 5.21407 6.64739 4.99532 6.8643 4.77664C8.03295 3.59847 9.21145 2.42213 10.39 1.25749C11.0639 0.599957 11.8201 0.0739314 12.8064 0.0410548H13.7763C14.4831 0.0246165 15.1571 0.271191 15.6338 0.747902C16.8185 1.92126 17.9796 3.12619 19.1553 4.34629C19.2792 4.47494 19.4033 4.60374 19.5277 4.7327C19.9257 5.14557 20.3259 5.55998 20.7297 5.97528C20.1327 5.89313 19.6014 5.94966 19.1169 6.10719C18.1474 6.42245 17.3654 7.14222 16.6201 7.96431C16.0513 8.58999 15.4431 9.18418 14.8337 9.77956C14.5626 10.0445 14.2911 10.3097 14.0228 10.578C13.316 11.2849 13.0201 11.2849 12.3297 10.5944C11.9154 10.1736 11.4959 9.75806 11.0764 9.34249C10.4472 8.71916 9.81791 8.09582 9.2064 7.45473C8.62328 6.85077 7.98738 6.39853 7.25693 6.1565Z" fill="#2F2D2C"/>
<path d="M19.0701 19.4054C18.2646 19.0602 17.5906 18.5177 16.9824 17.893C15.9797 16.8574 14.9276 15.8547 13.9249 14.8191C13.3824 14.2602 12.9386 14.2602 12.4126 14.8191C11.5413 15.7232 10.6372 16.578 9.76599 17.4821C8.6975 18.5999 7.61258 19.6684 5.8208 19.5204C7.61258 21.3451 9.28928 23.0875 11.0153 24.7807C11.4756 25.241 12.1331 25.4382 12.8071 25.504C13.1358 25.504 13.4646 25.504 13.7769 25.504C14.5002 25.4547 15.1742 25.2245 15.7002 24.7314C17.2454 23.3012 18.7413 21.8382 20.155 20.2602C20.2701 19.9643 20.7303 19.9807 20.7797 19.6191C20.2043 19.3067 19.5797 19.8163 19.0701 19.4054Z" fill="#FBFBFB"/>
<path fill-rule="evenodd" clip-rule="evenodd" d="M12.4126 14.8191C11.9769 15.2711 11.5331 15.7109 11.0893 16.1506C10.6454 16.5903 10.2016 17.03 9.76599 17.4821C9.04595 18.2354 8.31844 18.9662 7.37218 19.3176C6.91426 19.4876 6.40512 19.5687 5.8208 19.5204C6.21468 19.9215 6.603 20.3187 6.98751 20.7122C7.06281 20.7893 7.13796 20.8662 7.21298 20.943C8.49752 22.2578 9.74301 23.5326 11.0153 24.7807C11.4756 25.241 12.1331 25.4382 12.8071 25.504H13.7769C14.5002 25.4547 15.1742 25.2245 15.7002 24.7314C17.0595 23.4733 18.3807 22.1898 19.6413 20.8248C19.8137 20.6382 19.9849 20.45 20.155 20.2602C20.2072 20.1258 20.3306 20.0559 20.4544 19.9857C20.5242 19.9461 20.5941 19.9065 20.6515 19.8552C20.7165 19.797 20.7654 19.724 20.7797 19.6191C20.555 19.4971 20.3228 19.5005 20.0929 19.5254C20.0438 19.5307 19.9949 19.537 19.9461 19.5433C19.7458 19.5691 19.5488 19.5945 19.3617 19.5495C19.2991 19.5344 19.2376 19.5115 19.1774 19.478C19.1743 19.4763 19.1713 19.4746 19.1682 19.4728C19.1351 19.4537 19.1023 19.4314 19.0701 19.4054C18.2646 19.0602 17.5906 18.5177 16.9824 17.893C16.481 17.3752 15.9673 16.8656 15.4536 16.3561C14.9399 15.8465 14.4263 15.3369 13.9249 14.8191C13.3824 14.2602 12.9386 14.2602 12.4126 14.8191ZM13.169 15.8348C12.77 16.245 12.3672 16.6441 11.9739 17.0338L11.969 17.0386C11.5241 17.4793 11.0912 17.9084 10.6678 18.3476C10.0619 18.9815 9.31087 19.7672 8.30512 20.2721C9.51871 21.5142 10.6911 22.7117 11.8906 23.8884L11.8992 23.8968C12.0584 24.0559 12.3602 24.1965 12.8721 24.254H13.7307C14.2253 24.2139 14.5875 24.0612 14.8453 23.8195L14.8511 23.814C16.0439 22.7101 17.1976 21.595 18.3014 20.4278C17.4187 19.9977 16.6981 19.3929 16.0868 18.7651L16.0844 18.7626C15.5932 18.2553 15.0885 17.7546 14.5733 17.2435L14.5689 17.2391C14.1055 16.7794 13.6335 16.3112 13.169 15.8348Z" fill="#2F2D2C"/>
</svg>
