<svg width="31" height="29" viewBox="0 0 31 29" fill="none" xmlns="http://www.w3.org/2000/svg">
<path d="M27.5905 12.0891L30.6071 9.09941C30.9535 8.75611 30.9539 8.19589 30.6082 7.85201C24.7387 2.01398 25.9551 3.22565 24.3682 1.63881C24.025 1.29562 23.4685 1.29562 23.1253 1.63881L20.8678 3.89608C20.3203 4.44359 18.4512 4.24325 16.7117 4.61585C15.2285 3.7537 14.007 3.80228 13.0149 3.84194C12.1364 3.87716 11.681 3.8856 11.0777 3.50509C10.7755 3.30493 10.7807 3.28671 8.59909 1.10519C8.25584 0.761945 7.69938 0.762004 7.35613 1.10519C6.74218 1.71908 1.18166 7.26319 1.12553 7.31909C0.960001 7.48415 0.867012 7.70833 0.867188 7.94212C0.867364 8.17591 0.960645 8.39992 1.12641 8.56474L4.03965 11.4615C4.13135 11.5828 4.21062 12.0829 4.26318 12.4146C4.37463 13.1177 4.51824 14.0217 5.01846 14.8413L4.93057 14.9292C3.90008 15.9597 3.89996 17.6276 4.93057 18.6581C5.4077 19.1353 6.02382 19.3906 6.64978 19.4248C6.684 20.0508 6.93935 20.6669 7.41648 21.1441C7.88014 21.6077 8.48612 21.8772 9.13587 21.9122C9.17038 22.5377 9.42567 23.1532 9.90245 23.63C10.3796 24.1072 10.9956 24.3625 11.6217 24.3967C11.6559 25.0227 11.9112 25.6388 12.3884 26.1159C13.2107 26.9382 14.4235 27.0943 15.39 26.6316L16.1173 27.3589C17.1477 28.3894 18.8157 28.3895 19.8462 27.3589C20.3098 26.8952 20.5792 26.2893 20.6143 25.6395C21.2398 25.605 21.8554 25.3497 22.3321 24.8729C22.8089 24.3961 23.0641 23.7806 23.0987 23.1551C23.7485 23.12 24.3544 22.8507 24.818 22.387C25.2952 21.9098 25.5505 21.2938 25.5848 20.6678C26.2108 20.6336 26.8268 20.3783 27.304 19.9011C28.332 18.8731 28.332 17.2003 27.304 16.1722L26.6134 15.4817C27.4551 14.1479 27.2836 12.6478 27.5777 12.1052C27.5819 12.0995 27.5861 12.0935 27.5905 12.0891ZM19.8984 6.02241L25.7858 11.9099C25.5966 12.6439 25.6132 13.4605 25.3125 14.1808L19.8462 8.71445C18.8157 7.68402 17.1478 7.68384 16.1172 8.71445L13.6313 11.2004C13.2877 11.5439 12.7319 11.5439 12.3884 11.2004C12.0457 10.8576 12.0456 10.3001 12.3884 9.95741L14.8743 7.47144C16.2864 6.05932 18.2274 6.2242 19.8984 6.02241ZM4.33678 9.27801L2.99175 7.9406C4.1791 6.75677 6.75062 4.19269 7.97705 2.96907L9.31142 4.30337L4.33678 9.27801ZM7.41642 17.4151C7.07371 17.7579 6.51613 17.7579 6.17341 17.4151C5.82993 17.0716 5.82999 16.5157 6.17347 16.1722C6.65224 15.6934 6.91873 15.4269 7.41642 14.9292C7.75908 14.5865 8.31672 14.5866 8.65938 14.9292C9.00292 15.2728 9.00292 15.8286 8.65938 16.1722L7.41642 17.4151ZM9.9024 19.9011C9.55886 20.2446 9.00298 20.2447 8.65944 19.9011C8.31672 19.5584 8.31672 19.0008 8.65944 18.6581L9.9024 17.4151C10.2452 17.0724 10.8028 17.0725 11.1454 17.4151C11.4881 17.7579 11.4881 18.3154 11.1454 18.6581L9.9024 19.9011ZM11.1454 22.387C10.8027 22.0444 10.8027 21.4867 11.1454 21.1441L12.3884 19.9011C12.7319 19.5576 13.2877 19.5576 13.6313 19.9011C13.9749 20.2447 13.9749 20.8005 13.6313 21.1441L12.3884 22.387C12.0456 22.7297 11.4881 22.7296 11.1454 22.387ZM16.1172 23.6299L14.8742 24.8729C14.5307 25.2165 13.9749 25.2165 13.6313 24.8729C13.2886 24.5302 13.2886 23.9726 13.6313 23.63L14.8742 22.387C14.8743 22.387 14.8743 22.3869 14.8744 22.3869C15.2171 22.0444 15.7743 22.0444 16.1171 22.3869C16.1171 22.3869 16.1172 22.387 16.1172 22.387L16.1175 22.3873C16.4599 22.73 16.4598 23.2874 16.1172 23.6299ZM18.6031 26.116C18.2597 26.4594 17.7038 26.4595 17.3602 26.116L16.7387 25.4945L17.3602 24.873C17.578 24.6551 17.7493 24.4081 17.8748 24.1446L18.6031 24.873C18.9467 25.2165 18.9467 25.7724 18.6031 26.116ZM26.061 18.6581C25.7183 19.0008 25.1608 19.0008 24.818 18.6581L20.5614 14.4015C20.2182 14.0582 19.6617 14.0582 19.3185 14.4015C18.9752 14.7447 18.9752 15.3012 19.3185 15.6444L23.5751 19.9011C23.9177 20.2438 23.9177 20.8014 23.5751 21.144C23.2317 21.4873 22.676 21.4876 22.3323 21.1442C22.3323 21.1441 22.3322 21.1441 22.3321 21.144C22.332 21.144 22.332 21.1438 22.3318 21.1438L18.1304 16.9424C17.7872 16.5991 17.2307 16.5991 16.8875 16.9424C16.5442 17.2856 16.5442 17.8421 16.8875 18.1853L21.0891 22.387C21.4318 22.7297 21.4318 23.2873 21.0891 23.6299C20.7464 23.9726 20.1889 23.9726 19.8461 23.6299L17.3602 21.144C16.8834 20.6671 16.2679 20.4119 15.6424 20.3774C15.6074 19.7276 15.3379 19.1217 14.8743 18.658C14.4106 18.1944 13.8047 17.925 13.155 17.8899C13.1204 17.2644 12.8651 16.6489 12.3884 16.1721C11.9247 15.7085 11.3188 15.4391 10.669 15.404C10.6345 14.7785 10.3792 14.1629 9.9024 13.6862C8.92446 12.7083 7.36369 12.6614 6.32892 13.5438C6.15337 13.1074 6.07526 12.6185 5.99933 12.1393C5.90728 11.5585 5.81845 11.0037 5.5454 10.5553L10.776 5.32473C11.5934 5.65742 12.3699 5.62695 13.0853 5.5983C13.5072 5.58131 13.9184 5.56514 14.3482 5.6208C14.103 5.79606 13.8631 5.99662 13.6313 6.22842L11.1454 8.71433C10.1173 9.74237 10.1174 11.4152 11.1454 12.4432C12.1759 13.4738 13.8437 13.4738 14.8743 12.4432L17.3602 9.95729C17.7037 9.61381 18.2596 9.61375 18.6031 9.95729L26.0609 17.4151C26.4037 17.7579 26.4037 18.3154 26.061 18.6581ZM21.7787 5.41678C22.0194 5.24861 21.9693 5.2806 23.7468 3.50327C24.5531 4.30964 23.7089 3.46887 28.741 8.47398L26.7797 10.4178L21.7787 5.41678Z" fill="#D9D9D9"/>
</svg>
