<svg
    class="h-6 w-6 mr-6"
    viewBox="0 0 31 31"
    fill="none"
    xmlns="http://www.w3.org/2000/svg"
  >
  <path
    d="M14.2178 15.7454V2.74295C14.2178 2.41155 13.9488 2.14258 13.6174 2.14258C6.66532 2.14258 1.01001 8.33703 1.01001 15.9507C1.01001 23.5643 7.20446 29.7588 14.8181 29.7588C18.2245 29.7588 20.0675 29.1416 22.4041 27.2205C22.6551 27.014 22.6959 26.6453 22.4966 26.3884L14.2178 15.7454ZM14.8181 28.5581C7.86601 28.5581 2.21069 22.9028 2.21069 15.9507C2.21069 9.22196 7.0051 3.70713 13.017 3.36015V15.9507C13.017 16.084 13.0614 16.2137 13.1443 16.3193L21.1842 26.6562C19.2883 28.1042 17.707 28.5581 14.8181 28.5581Z"
    fill="#D9D9D9"
  />
  <path
    fill-rule="evenodd"
    clip-rule="evenodd"
    d="M22.4043 27.219C20.0677 29.1401 18.2247 29.7573 14.8183 29.7573C7.20466 29.7573 1.01021 23.5628 1.01021 15.9491C1.01021 8.33552 6.66553 2.14107 13.6176 2.14107C13.949 2.14107 14.218 2.41005 14.218 2.74144V15.7439L22.4968 26.3869C22.6961 26.6438 22.6553 27.0125 22.4043 27.219ZM14.5094 15.6439V2.74144C14.5094 2.24908 14.11 1.84961 13.6176 1.84961C6.48016 1.84961 0.71875 8.20008 0.71875 15.9491C0.71875 23.7237 7.04369 30.0487 14.8183 30.0487C16.5379 30.0487 17.885 29.8932 19.105 29.485C20.3272 29.0759 21.4031 28.4196 22.5894 27.4441C22.9625 27.1371 23.0228 26.5895 22.7271 26.2082L14.5094 15.6439ZM2.50236 15.9492C2.50236 22.7403 8.02718 28.2651 14.8183 28.2651C16.2491 28.2651 17.3353 28.1524 18.2909 27.8692C19.1614 27.6112 19.9367 27.2076 20.7718 26.599L12.9151 16.4977C12.915 16.4975 12.9152 16.4978 12.9151 16.4977C12.792 16.3405 12.7258 16.1472 12.7258 15.9492V3.67216C7.03531 4.17633 2.50236 9.46673 2.50236 15.9492ZM12.7258 3.37958C6.85109 3.88478 2.2109 9.32956 2.2109 15.9492C2.2109 22.9013 7.86621 28.5566 14.8183 28.5566C17.5878 28.5566 19.1556 28.1395 20.9508 26.8291C21.0282 26.7727 21.106 26.7145 21.1843 26.6547C21.1844 26.6547 21.1843 26.6547 21.1843 26.6547L13.1445 16.3178C13.0616 16.2122 13.0172 16.0825 13.0172 15.9492V3.35864C12.9198 3.36427 12.8226 3.37125 12.7258 3.37958Z"
    fill="#D9D9D9"
  />
  <path
    d="M16.6192 15.0198H29.8269C30.1583 15.0198 30.4273 14.7508 30.4273 14.4194C30.4272 6.80578 24.2328 0.611328 16.6192 0.611328C16.2878 0.611328 16.0188 0.880304 16.0188 1.2117V14.4195C16.0188 14.7508 16.2878 15.0198 16.6192 15.0198ZM17.2195 1.82642C23.6949 2.13142 28.9072 7.34367 29.2121 13.819H17.2195V1.82642Z"
    fill="#D9D9D9"
  />
  <path
    fill-rule="evenodd"
    clip-rule="evenodd"
    d="M29.8271 15.3117H16.6194C16.127 15.3117 15.7275 14.9122 15.7275 14.4199V1.21214C15.7275 0.719781 16.127 0.320312 16.6194 0.320312C24.394 0.320312 30.7189 6.64525 30.719 14.4198C30.719 14.9122 30.3195 15.3117 29.8271 15.3117ZM17.2197 1.82687V13.8195H29.2123C29.2077 13.722 29.202 13.6249 29.1952 13.528C28.757 7.28522 23.754 2.28222 17.5111 1.84396C17.4143 1.83716 17.3171 1.83146 17.2197 1.82687ZM17.5111 2.13616V13.528H28.903C28.4659 7.44635 23.5929 2.57327 17.5111 2.13616ZM29.8271 15.0202H16.6194C16.288 15.0202 16.019 14.7512 16.019 14.4199V1.21214C16.019 0.880751 16.288 0.611774 16.6194 0.611774C24.233 0.611774 30.4274 6.80622 30.4275 14.4198C30.4275 14.7512 30.1585 15.0202 29.8271 15.0202Z"
    fill="#D9D9D9"
  />
  <path
    d="M29.8268 16.5508H17.8198C17.5892 16.5508 17.3767 16.6841 17.277 16.893C17.1774 17.1019 17.2074 17.3493 17.3527 17.5281L25.1573 27.1902C25.2617 27.321 25.4155 27.4003 25.5823 27.4123C25.5967 27.4135 25.61 27.4135 25.6244 27.4135C25.7757 27.4135 25.9222 27.3559 26.0338 27.2526C28.8254 24.6483 30.4272 20.967 30.4272 17.1512C30.4272 16.8198 30.1582 16.5508 29.8268 16.5508ZM25.676 25.9211L19.0769 17.7515H29.2121C29.0644 20.8037 27.8012 23.7226 25.676 25.9211Z"
    fill="#D9D9D9"
  />
  <path
    fill-rule="evenodd"
    clip-rule="evenodd"
    d="M26.0336 27.2511C25.9219 27.3544 25.7754 27.412 25.6241 27.412C25.6097 27.412 25.5965 27.412 25.5821 27.4108C25.4152 27.3988 25.2615 27.3195 25.157 27.1887L17.3524 17.5266C17.2071 17.3478 17.1771 17.1004 17.2768 16.8915C17.3764 16.6826 17.589 16.5493 17.8195 16.5493H29.8265C30.1579 16.5493 30.4269 16.8183 30.4269 17.1496C30.4269 20.9655 28.8251 24.6468 26.0336 27.2511ZM17.1259 17.7101C17.1258 17.7099 17.126 17.7102 17.1259 17.7101C16.9101 17.4441 16.8655 17.0766 17.0137 16.766C17.1619 16.4553 17.4771 16.2578 17.8195 16.2578H29.8265C30.3189 16.2578 30.7184 16.6573 30.7184 17.1496C30.7184 21.0464 29.083 24.8049 26.2324 27.4642L26.2315 27.4651C26.0663 27.6178 25.8493 27.7035 25.6241 27.7035L25.6219 27.7035C25.6087 27.7035 25.5856 27.7035 25.5597 27.7014M17.1259 17.7101L24.9292 27.3705L17.1259 17.7101ZM25.6757 25.9196C25.7439 25.8491 25.8112 25.7778 25.8776 25.7057C27.8149 23.6051 28.9897 20.8899 29.1943 18.0415C29.2013 17.9445 29.2071 17.8473 29.2118 17.75H19.0766L25.6757 25.9196ZM25.6925 25.4765C27.5629 23.434 28.699 20.8021 28.9021 18.0415H19.6867L25.6925 25.4765Z"
    fill="#D9D9D9"
  />
</svg>