<svg width="21" height="21" viewBox="0 0 21 21" fill="none" xmlns="http://www.w3.org/2000/svg">
<path fill-rule="evenodd" clip-rule="evenodd" d="M13.2957 3.38743C13.2957 2.88535 13.7027 2.47834 14.2048 2.47834C14.7069 2.47834 15.1139 2.88535 15.1139 3.38743C15.1139 3.88951 14.7069 4.29652 14.2048 4.29652C13.7027 4.29652 13.2957 3.88951 13.2957 3.38743ZM11.6327 4.29654H1.4169C0.914826 4.29654 0.507812 3.88952 0.507812 3.38744C0.507812 2.88537 0.914826 2.47835 1.4169 2.47835H11.6327C12.0071 1.41908 13.0173 0.660156 14.2048 0.660156C15.3923 0.660156 16.4025 1.41908 16.7769 2.47835H19.9018C20.4038 2.47835 20.8108 2.88537 20.8108 3.38744C20.8108 3.88952 20.4038 4.29654 19.9018 4.29654H16.7769C16.4025 5.35579 15.3923 6.1147 14.2048 6.1147C13.0173 6.1147 12.0071 5.35579 11.6327 4.29654ZM1.4169 9.75108C0.914826 9.75108 0.507812 10.1581 0.507812 10.6602C0.507812 11.1623 0.914826 11.5693 1.4169 11.5693H3.87525C4.24966 12.6285 5.25987 13.3874 6.44733 13.3874C7.63478 13.3874 8.64499 12.6285 9.0194 11.5693H19.9018C20.4038 11.5693 20.8108 11.1623 20.8108 10.6602C20.8108 10.1581 20.4038 9.75108 19.9018 9.75108H9.01943C8.64504 8.6918 7.63481 7.93286 6.44733 7.93286C5.25984 7.93286 4.24961 8.6918 3.87523 9.75108H1.4169ZM1.4169 17.0238C0.914826 17.0238 0.507812 17.4308 0.507812 17.9329C0.507812 18.435 0.914826 18.842 1.4169 18.842H11.6327C12.0071 19.9012 13.0173 20.6602 14.2048 20.6602C15.3923 20.6602 16.4025 19.9012 16.7769 18.842H19.9018C20.4038 18.842 20.8108 18.435 20.8108 17.9329C20.8108 17.4308 20.4038 17.0238 19.9018 17.0238H16.7769C16.4025 15.9645 15.3923 15.2056 14.2048 15.2056C13.0173 15.2056 12.0071 15.9645 11.6327 17.0238H1.4169ZM6.44733 9.75105C5.94525 9.75105 5.53823 10.1581 5.53823 10.6601C5.53823 11.1622 5.94525 11.5692 6.44733 11.5692C6.9494 11.5692 7.35642 11.1622 7.35642 10.6601C7.35642 10.1581 6.9494 9.75105 6.44733 9.75105ZM13.2957 17.9329C13.2957 17.4308 13.7027 17.0238 14.2048 17.0238C14.7069 17.0238 15.1139 17.4308 15.1139 17.9329C15.1139 18.435 14.7069 18.842 14.2048 18.842C13.7027 18.842 13.2957 18.435 13.2957 17.9329Z" fill="#D9D9D9"/>
</svg>
