<svg
  class="h-6 w-6 mr-6"
  viewBox="0 0 31 31"
  fill="none"
  xmlns="http://www.w3.org/2000/svg"
>
  <path
    d="M7.89746 12.5835H5.58189C5.97307 7.25146 10.4361 3.03271 15.8662 3.03271C20.1631 3.03271 24.0513 5.73916 25.5415 9.76742C25.766 10.3744 26.4401 10.6844 27.0472 10.4599C27.6542 10.2353 27.9642 9.56129 27.7397 8.95426C26.8515 6.55332 25.2737 4.49879 23.1768 3.01273C21.0317 1.49252 18.5037 0.688965 15.8662 0.688965C12.4856 0.688965 9.30734 2.00545 6.91689 4.3959C4.55762 6.75518 3.24541 9.88197 3.21154 13.2132C1.81104 14.0247 0.866211 15.5391 0.866211 17.271V21.2554C0.866211 23.8401 2.96902 25.9429 5.55371 25.9429H7.89746C8.54469 25.9429 9.06934 25.4182 9.06934 24.771V13.7554C9.06934 13.1081 8.54469 12.5835 7.89746 12.5835ZM6.72559 23.5991H5.55371C4.26137 23.5991 3.20996 22.5477 3.20996 21.2554V17.271C3.20996 15.9787 4.26137 14.9272 5.55371 14.9272H6.72559V23.5991Z"
    fill="#D9D9D9"
  />
  <path
    d="M26.1787 12.5835H23.835C23.1877 12.5835 22.6631 13.1081 22.6631 13.7554V21.7827V24.771V26.0015C22.6631 26.6476 22.1374 27.1733 21.4912 27.1733H17.917V27.2105C17.5173 26.4896 16.7489 26.0015 15.8662 26.0015C14.5718 26.0015 13.5225 27.0508 13.5225 28.3452C13.5225 29.6396 14.5718 30.689 15.8662 30.689C16.7489 30.689 17.5173 30.2008 17.917 29.4799V29.5171H21.4912C23.4297 29.5171 25.0068 27.94 25.0068 26.0015V25.9429H26.1787C28.7634 25.9429 30.8662 23.8401 30.8662 21.2554V17.271C30.8662 14.6863 28.7634 12.5835 26.1787 12.5835ZM28.5225 21.2554C28.5225 22.5477 27.4711 23.5991 26.1787 23.5991H25.0068V21.7827V14.9272H26.1787C27.4711 14.9272 28.5225 15.9787 28.5225 17.271V21.2554Z"
    fill="#D9D9D9"
  />
</svg>