<svg
  class="h-6 w-6 mr-6"
  viewBox="0 0 30 32"
  fill="none"
  xmlns="http://www.w3.org/2000/svg"
>
  <path
    d="M28.2009 22.276V10.4166C28.2004 10.0284 28.0983 9.64717 27.9047 9.31074C27.7111 8.97432 27.4327 8.69447 27.0973 8.49905L16.5408 2.35543C16.0322 2.05932 15.4542 1.90332 14.8656 1.90332C14.2771 1.90332 13.6991 2.05932 13.1905 2.35543L2.63531 8.49905C2.29993 8.69447 2.02158 8.97432 1.82796 9.31074C1.63434 9.64717 1.53221 10.0284 1.53174 10.4166V22.276C1.53197 22.6644 1.63398 23.046 1.82761 23.3827C2.02124 23.7194 2.29973 23.9994 2.63531 24.195L13.1919 30.3386C13.7006 30.6343 14.2786 30.79 14.867 30.79C15.4555 30.79 16.0334 30.6343 16.5422 30.3386L27.0987 24.195C27.434 23.9993 27.7122 23.7191 27.9056 23.3824C28.099 23.0458 28.2008 22.6643 28.2009 22.276Z"
    stroke="#D9D9D9"
    stroke-width="2.25"
    stroke-linecap="round"
    stroke-linejoin="round"
  />
  <path
    fill-rule="evenodd"
    clip-rule="evenodd"
    d="M0.921176 8.69886C1.23234 8.16989 1.9134 7.99331 2.44238 8.30448L14.8663 15.6127L27.2902 8.30448C27.8192 7.99331 28.5002 8.16989 28.8114 8.69886C29.1226 9.22784 28.946 9.9089 28.417 10.2201L15.9775 17.5374V30.7921C15.9775 31.4058 15.48 31.9033 14.8663 31.9033C14.2526 31.9033 13.7551 31.4058 13.7551 30.7921V17.5374L1.31556 10.2201C0.786587 9.9089 0.610014 9.22784 0.921176 8.69886Z"
    fill="#D9D9D9"
  />
</svg>