<svg
  class="h-6 w-6 mr-6"
  viewBox="0 0 29 31"
  fill="none"
  xmlns="http://www.w3.org/2000/svg"
>
  <path
    d="M22.7615 18.6699C22.3222 18.6699 21.8938 18.7169 21.4805 18.8053C20.4438 17.162 19.0007 15.8182 17.299 14.9031C18.5061 13.3591 19.1682 11.3685 19.1682 9.26389C19.1682 7.05982 18.4424 4.98022 17.1245 3.40832C15.7655 1.78727 13.944 0.894531 11.9955 0.894531C10.0469 0.894531 8.22543 1.78727 6.86641 3.40832C5.54852 4.98027 4.82272 7.05982 4.82272 9.26389C4.82272 11.3684 5.48483 13.359 6.69186 14.903C3.53096 16.5981 1.34717 19.7164 0.878242 23.3245C0.798671 23.9371 0.986933 24.5545 1.39504 25.0187C1.8025 25.4819 2.39049 25.7477 3.00818 25.7477H16.7256C17.1899 28.6608 19.7195 30.8945 22.7615 30.8945C26.1318 30.8945 28.8738 28.1525 28.8738 24.7821C28.8738 21.4118 26.1318 18.6699 22.7615 18.6699ZM11.9955 2.82531C14.8858 2.82531 17.2374 5.71363 17.2374 9.26383C17.2374 13.1133 14.6293 15.7022 11.9878 15.7022C9.19932 15.6976 6.75356 12.9211 6.75356 9.26383C6.7535 5.71363 9.10498 2.82531 11.9955 2.82531ZM16.7256 23.8169H3.00824C2.94537 23.8168 2.88584 23.79 2.845 23.7436C2.80387 23.6969 2.78494 23.6349 2.79291 23.5734C3.20717 20.3854 5.23932 17.6581 8.14739 16.3342C9.27854 17.1753 10.5987 17.6306 11.9849 17.6331C11.9884 17.6331 11.9919 17.6332 11.9954 17.6332C11.9989 17.6332 12.0024 17.6331 12.006 17.6331C13.38 17.6307 14.7022 17.1829 15.8432 16.3344C17.3755 17.0333 18.6891 18.1382 19.6432 19.5251C18.1202 20.4307 17.0159 21.9948 16.7256 23.8169ZM22.7615 28.9638C20.4558 28.9638 18.58 27.0879 18.58 24.7822C18.58 22.4678 20.4633 20.6007 22.7615 20.6007C25.0672 20.6007 26.943 22.4765 26.943 24.7822C26.943 27.0879 25.0672 28.9638 22.7615 28.9638Z"
    fill="#D9D9D9"
  />
</svg>