<svg width="31" height="31" viewBox="0 0 31 31" fill="none" xmlns="http://www.w3.org/2000/svg">
<g clip-path="url(#clip0_731_3443)">
<path d="M23.5019 18.6699C23.0626 18.6699 22.6341 18.7169 22.2209 18.8053C21.1842 17.162 19.7411 15.8182 18.0393 14.9031C19.2464 13.3591 19.9085 11.3685 19.9085 9.26389C19.9085 7.05982 19.1827 4.98022 17.8648 3.40832C16.5059 1.78727 14.6843 0.894531 12.7358 0.894531C10.7873 0.894531 8.96579 1.78727 7.60677 3.40832C6.28887 4.98027 5.56307 7.05982 5.56307 9.26389C5.56307 11.3684 6.22518 13.359 7.43221 14.903C4.27131 16.5981 2.08752 19.7164 1.6186 23.3245C1.53903 23.9371 1.72729 24.5545 2.1354 25.0187C2.54286 25.4819 3.13085 25.7477 3.74854 25.7477H17.466C17.9302 28.6608 20.4599 30.8945 23.5019 30.8945C26.8722 30.8945 29.6142 28.1525 29.6142 24.7821C29.6142 21.4118 26.8722 18.6699 23.5019 18.6699ZM12.7358 2.82531C15.6262 2.82531 17.9777 5.71363 17.9777 9.26383C17.9777 13.1133 15.3697 15.7022 12.7282 15.7022C9.93968 15.6976 7.49391 12.9211 7.49391 9.26383C7.49385 5.71363 9.84534 2.82531 12.7358 2.82531ZM17.4659 23.8169H3.7486C3.68573 23.8168 3.6262 23.79 3.58536 23.7436C3.54422 23.6969 3.5253 23.6349 3.53327 23.5734C3.94753 20.3854 5.97967 17.6581 8.88774 16.3342C10.0189 17.1753 11.339 17.6306 12.7252 17.6331C12.7287 17.6331 12.7323 17.6332 12.7358 17.6332C12.7393 17.6332 12.7428 17.6331 12.7463 17.6331C14.1204 17.6307 15.4425 17.1829 16.5836 16.3344C18.1159 17.0333 19.4294 18.1382 20.3835 19.5251C18.8606 20.4307 17.7563 21.9948 17.4659 23.8169ZM23.5019 28.9638C21.1961 28.9638 19.3203 27.0879 19.3203 24.7822C19.3203 22.4678 21.2037 20.6007 23.5019 20.6007C25.8075 20.6007 27.6833 22.4765 27.6833 24.7822C27.6833 27.0879 25.8075 28.9638 23.5019 28.9638Z" fill="#D9D9D9"/>
<path d="M25.643 23.817H24.4672V22.6412C24.4672 22.108 24.0349 21.6758 23.5018 21.6758C22.9686 21.6758 22.5364 22.108 22.5364 22.6412V23.817H21.3605C20.8274 23.817 20.3951 24.2492 20.3951 24.7824C20.3951 25.3155 20.8274 25.7478 21.3605 25.7478H22.5364V26.9236C22.5364 27.4568 22.9686 27.889 23.5018 27.889C24.0349 27.889 24.4672 27.4568 24.4672 26.9236V25.7478H25.643C26.1761 25.7478 26.6084 25.3155 26.6084 24.7824C26.6084 24.2492 26.1761 23.817 25.643 23.817Z" fill="#D9D9D9"/>
</g>
<defs>
<clipPath id="clip0_731_3443">
<rect width="30" height="30" fill="white" transform="translate(0.607422 0.894531)"/>
</clipPath>
</defs>
</svg>
